<svg width="41" height="41" viewBox="0 0 41 41" fill="none" xmlns="http://www.w3.org/2000/svg">
<path fill-rule="evenodd" clip-rule="evenodd" d="M10.8333 11.6667V13.3334H12.4999L15.4999 19.6584L14.3749 21.6917C13.7666 22.8084 14.5666 24.1667 15.8333 24.1667H25.8333V22.5001H15.8333L16.7499 20.8334H22.9583C23.5833 20.8334 24.1333 20.4917 24.4166 19.9751L27.3999 14.5667C27.7083 14.0167 27.3083 13.3334 26.6749 13.3334H14.3416L13.5583 11.6667H10.8333ZM15.8333 25C14.9166 25 14.1749 25.75 14.1749 26.6667C14.1749 27.5833 14.9166 28.3333 15.8333 28.3333C16.7499 28.3333 17.4999 27.5833 17.4999 26.6667C17.4999 25.75 16.7499 25 15.8333 25ZM22.5083 26.6667C22.5083 25.75 23.2499 25 24.1666 25C25.0833 25 25.8333 25.75 25.8333 26.6667C25.8333 27.5833 25.0833 28.3333 24.1666 28.3333C23.2499 28.3333 22.5083 27.5833 22.5083 26.6667Z" fill="black"/>
<circle cx="20" cy="20" r="19" stroke="black" stroke-width="2"/>
<path d="M33 33L39 39" stroke="black" stroke-width="3"/>
</svg>
