<svg width="32" height="32" viewBox="0 0 32 32" fill="none" xmlns="http://www.w3.org/2000/svg">
<path fill-rule="evenodd" clip-rule="evenodd" d="M14.652 10.6667C14.652 12.8801 12.8787 14.6667 10.6654 14.6667C8.45203 14.6667 6.66536 12.8801 6.66536 10.6667C6.66536 8.45341 8.45203 6.66675 10.6654 6.66675C12.8787 6.66675 14.652 8.45341 14.652 10.6667ZM25.3187 10.6667C25.3187 12.8801 23.5454 14.6667 21.332 14.6667C19.1187 14.6667 17.332 12.8801 17.332 10.6667C17.332 8.45341 19.1187 6.66675 21.332 6.66675C23.5454 6.66675 25.3187 8.45341 25.3187 10.6667ZM10.6654 17.3334C7.5587 17.3334 1.33203 18.8934 1.33203 22.0001V25.3334H19.9987V22.0001C19.9987 18.8934 13.772 17.3334 10.6654 17.3334ZM20.0387 17.4001C20.5054 17.3601 20.9454 17.3334 21.332 17.3334C24.4387 17.3334 30.6654 18.8934 30.6654 22.0001V25.3334H22.6654V22.0001C22.6654 20.0267 21.5854 18.5201 20.0387 17.4001Z" fill="#A9855C"/>
</svg>
