<svg width="20" height="20" viewBox="0 0 20 20" fill="none" xmlns="http://www.w3.org/2000/svg">
<path d="M0.874466 16.9055C-1.04604 13.5188 0.260817 8.2072 4.23383 4.23309C8.74559 -0.278065 14.9841 -1.35354 18.1692 1.831C18.173 1.83517 18.1761 1.83989 18.1812 1.84413C17.5438 3.69875 15.5138 7.64489 9.4288 9.77837C3.85469 11.7338 1.70446 14.8426 0.874466 16.9055ZM19.0651 2.99033C18.5823 4.1166 17.742 5.58846 16.2942 7.03615C14.8389 8.49207 12.7705 9.92197 9.8407 10.9497C3.89443 13.0348 2.23303 16.4483 1.76948 18.1025C1.79138 18.1246 1.81021 18.1475 1.8315 18.1689C5.01635 21.3536 11.2551 20.2782 15.7665 15.7663C19.7809 11.7519 21.0719 6.37135 19.0651 2.99033Z" fill="#A9855C"/>
</svg>
