<svg width="38" height="126" viewBox="0 0 38 126" fill="none" xmlns="http://www.w3.org/2000/svg">
<path d="M19.9606 1.04197C14.901 4.89998 10.9512 10.2896 9.30086 16.5174C7.56126 23.1618 8.48194 30.2311 11.8635 36.1946C14.7737 41.2794 19.6817 45.5377 25.6136 46.2399C28.5925 46.591 31.8487 46.0954 34.1711 44.0552C36.4349 42.0611 37.559 38.9357 36.7252 35.9736C35.8915 33.0114 33.4361 30.8527 30.5474 30.0218C27.0966 29.0306 23.3484 28.902 19.9191 30.0218C13.5682 32.0982 8.84753 37.5789 5.71569 43.3153C4.12309 46.2782 2.80654 49.3842 1.783 52.5933C0.638952 56.1075 0.924966 60.0189 1.52559 63.6212C2.12193 67.1642 3.35179 70.6046 5.38677 73.5696C7.29734 76.3656 9.75705 78.7064 12.1882 81.0386C14.8829 83.6421 17.4419 86.3854 19.8547 89.2574C21.0603 90.685 22.3059 92.1386 23.1825 93.8032C24.071 95.5138 24.3909 97.4679 24.0949 99.3764C23.8119 101.096 23.1746 102.736 22.2244 104.191C21.2748 105.686 20.0135 106.923 18.8094 108.204C16.5999 110.552 14.9053 113.219 14.7179 116.544C14.5378 119.766 15.9907 122.699 18.4833 124.672C18.7178 124.857 19.1812 125.25 19.3714 124.773C19.5616 124.296 18.6864 123.875 18.4232 123.634C17.1849 122.512 16.2752 121.067 15.7934 119.458C14.768 115.944 16.148 112.171 18.5605 109.575C19.7046 108.35 20.923 107.238 21.9455 105.903C22.968 104.568 23.8518 103.074 24.4038 101.459C25.5564 98.0832 24.8914 94.7251 22.8493 91.8655C20.6899 88.8427 18.163 86.0395 15.6046 83.362C12.9618 80.595 10.013 78.0894 7.55046 75.1518C5.33496 72.4743 3.72442 69.3405 2.83124 65.9692C2.39219 64.3301 2.09599 62.6553 1.94603 60.9639C1.77157 59.0291 1.63857 57.0221 1.95747 55.0974C2.26637 53.2363 2.98569 51.394 3.65639 49.6399C4.34331 47.8259 5.13895 46.056 6.03888 44.3398C9.16358 38.4155 13.95 32.6155 20.5383 30.6287C22.1844 30.1324 23.8999 29.9127 25.6165 29.9785C27.457 30.0493 29.4862 30.3036 31.2052 31.0044C34.4443 32.3222 36.7495 35.5834 36.126 39.1828C35.5111 42.733 32.435 45.0435 29.0315 45.4726C25.3848 45.9307 21.7968 44.9192 18.7808 42.8414C13.0405 38.8851 9.69127 31.8323 9.23508 24.9385C8.78604 18.1473 11.2014 11.4384 15.5274 6.26979C16.5855 5.00868 17.7465 3.83947 18.9981 2.77447C19.3719 2.4585 19.7532 2.15073 20.1422 1.85115C20.2752 1.74855 20.4682 1.64163 20.5097 1.45378C20.5827 1.12 20.2881 0.959613 20.0163 1.0203C19.7446 1.08099 19.8605 1.49858 20.1308 1.43934C19.4643 1.58383 18.7264 2.43635 18.223 2.88428C17.5795 3.45552 16.9598 4.05469 16.364 4.6818C15.2807 5.83045 14.292 7.06662 13.408 8.37797C11.6524 10.9696 10.3511 13.847 9.56114 16.8844C7.96554 23.1592 8.77567 29.8115 11.8292 35.5083C14.8667 41.1291 20.3338 45.9003 26.9321 46.0188C30.0082 46.0737 33.0585 45.2024 35.0277 42.6796C35.8829 41.5852 36.4226 40.2738 36.5876 38.8895C36.7526 37.5052 36.5365 36.1017 35.963 34.8335C34.6316 31.9436 31.75 30.412 28.7598 29.9207C25.4892 29.3788 22.3116 29.428 19.1869 30.6432C13.2607 32.9421 8.89901 38.1728 5.91304 43.6636C4.15977 46.8901 2.69253 50.4028 1.75441 53.9632C1.30393 55.6725 1.29678 57.4556 1.38974 59.2098C1.46268 60.8338 1.64712 62.4507 1.94174 64.0489C2.52912 67.2174 3.70797 70.244 5.41537 72.9671C7.31736 75.9567 9.94725 78.351 12.457 80.8059C15.1679 83.4394 17.7358 86.2192 20.1493 89.1332C21.3263 90.5622 22.5805 92.0028 23.4571 93.6443C24.4179 95.4272 24.7674 97.4814 24.451 99.4862C23.879 103.038 21.6037 105.921 19.1354 108.37C16.8316 110.654 15.0569 113.515 15.0097 116.876C14.9913 118.306 15.3042 119.72 15.9235 121.006C16.507 122.22 17.4622 123.636 18.6134 124.371C19.174 124.729 18.5877 124.216 18.3818 124.04C18.091 123.789 17.8132 123.524 17.5495 123.244C16.9206 122.578 16.395 121.819 15.9907 120.994C15.1913 119.35 14.9696 117.471 15.2271 115.668C15.4908 113.894 16.1709 112.21 17.2106 110.755C18.1801 109.387 19.4043 108.232 20.5355 106.998C22.6548 104.701 24.3266 101.941 24.5911 98.7406C24.8871 95.1658 22.9909 92.3669 20.82 89.7444C18.4999 86.9097 16.0304 84.2033 13.4223 81.6368C10.9783 79.2613 8.42995 76.9551 6.37208 74.2155C4.17264 71.2852 2.77833 67.8809 2.08189 64.2801C1.35684 60.5521 1.01506 56.369 2.20059 52.7133C3.25644 49.3904 4.63456 46.181 6.31488 43.1318C9.58687 37.2856 14.6093 31.6907 21.3163 30.0782C23.2687 29.6278 25.2858 29.5387 27.2696 29.8152C29.0758 30.0464 30.9792 30.3932 32.5738 31.3281C35.4768 33.0158 37.2458 36.5169 36.3391 39.8634C35.3552 43.4902 32.0346 45.555 28.4909 45.8541C25.442 46.1099 22.4189 45.3397 19.7761 43.8052C14.0916 40.5064 10.4363 34.231 9.27226 27.827C8.03525 21.0111 9.67554 13.9844 13.5696 8.32017C15.3966 5.68137 17.6272 3.3529 20.1779 1.422C20.3953 1.25149 20.1822 0.874361 19.9606 1.04197Z" stroke="black"/>
</svg>
