<svg width="24" height="24" viewBox="0 0 24 24" fill="none" xmlns="http://www.w3.org/2000/svg">
<path d="M19.1675 4.48524C18.59 3.94537 17.8618 3.58508 17.0749 3.44993C16.2881 3.31479 15.4779 3.41085 14.7469 3.72598C14.0158 4.04111 13.3968 4.56115 12.968 5.22034C12.5392 5.87952 12.3199 6.64824 12.3379 7.42928C12.3559 8.21032 12.6104 8.96861 13.0691 9.60823C13.5278 10.2479 14.1702 10.7401 14.915 11.0227C15.6598 11.3053 16.4736 11.3656 17.2534 11.1959C18.0333 11.0263 18.7442 10.6342 19.2962 10.0695C20.0363 9.31225 20.4386 8.29854 20.4144 7.25131C20.3903 6.20408 19.9418 5.20911 19.1675 4.48524ZM14.2931 9.47268C13.8619 9.06968 13.5626 8.55072 13.4331 7.9814C13.3035 7.41207 13.3495 6.81797 13.5652 6.27421C13.781 5.73044 14.1567 5.26144 14.645 4.92651C15.1333 4.59158 15.7122 4.40575 16.3085 4.39253C16.9048 4.37932 17.4917 4.5393 17.995 4.85226C18.4983 5.16521 18.8954 5.61708 19.1361 6.15073C19.3768 6.68438 19.4503 7.27583 19.3472 7.85031C19.2442 8.42479 18.9692 8.95648 18.5572 9.37816C18.0045 9.94355 17.2448 10.2711 16.4452 10.2889C15.6455 10.3066 14.8714 10.013 14.2931 9.47268Z" fill="#A9855C"/>
<path d="M23.861 11.0845L22.2494 9.57815C22.8135 8.15718 22.8176 6.58196 22.261 5.15819C21.7044 3.73441 20.6267 2.56361 19.2371 1.87301C17.8475 1.1824 16.2451 1.02124 14.7408 1.4208C13.2366 1.82036 11.9378 2.75214 11.0964 4.03531L10.2125 3.21071C10.17 3.17057 10.1454 3.11565 10.1441 3.05788C10.1427 3.00012 10.1648 2.94418 10.2054 2.90222L11.8566 1.21319C11.8975 1.17137 11.9537 1.14716 12.0129 1.14586C12.0721 1.14457 12.1293 1.1663 12.1721 1.20629L13.1239 2.09567C13.3555 1.95634 13.5962 1.83217 13.8445 1.72399L12.2172 0.1985C12.1558 0.141457 12.0738 0.110496 11.9892 0.112386C11.9045 0.114277 11.824 0.148865 11.7654 0.208588L9.12594 2.90646C9.06764 2.9664 9.03599 3.04647 9.03793 3.12917C9.03986 3.21186 9.07522 3.29044 9.13626 3.3477L10.6762 4.7877C10.2466 5.70561 10.0543 6.71269 10.1162 7.72033C10.1781 8.72798 10.4924 9.7053 11.0313 10.5663L9.17644 12.4624C9.08572 12.5557 9.03646 12.6804 9.03941 12.8091C9.04236 12.9378 9.09728 13.0602 9.19218 13.1495L10.7582 14.6128C10.8536 14.7015 10.9811 14.7497 11.1127 14.7468C11.2444 14.7439 11.3695 14.6902 11.4608 14.5974L13.3069 12.7098C14.2142 13.2074 15.2334 13.4776 16.2735 13.4961C17.3135 13.5146 18.3421 13.281 19.2673 12.816L20.7822 14.2321C20.8436 14.289 20.9254 14.3199 21.01 14.318C21.0945 14.3161 21.1748 14.2816 21.2334 14.222L23.8707 11.5242C23.9286 11.4644 23.96 11.3847 23.9582 11.3024C23.9564 11.2201 23.9214 11.1418 23.861 11.0845ZM11.3321 13.8551C11.2665 13.922 11.1764 13.9607 11.0817 13.9628C10.987 13.9648 10.8952 13.9302 10.8266 13.8663L9.95454 13.0507C9.88609 12.9867 9.84644 12.8987 9.8443 12.8061C9.84216 12.7135 9.87771 12.6239 9.94313 12.5569L11.3891 11.0771C11.7804 11.5775 12.2473 12.0169 12.7737 12.3801L11.3321 13.8551ZM12.7667 11.059C12.0169 10.3583 11.4964 9.45598 11.2711 8.46604C11.0458 7.4761 11.1257 6.44306 11.5008 5.49754C11.8759 4.55203 12.5293 3.73652 13.3783 3.15413C14.2274 2.57175 15.234 2.24865 16.2708 2.22571C17.3077 2.20276 18.3282 2.48099 19.2033 3.02522C20.0784 3.56944 20.7689 4.35521 21.1873 5.28316C21.6058 6.21112 21.7334 7.23957 21.5541 8.23846C21.3748 9.23736 20.8967 10.1618 20.1801 10.895C19.2192 11.878 17.8984 12.4475 16.5081 12.4783C15.1178 12.5091 13.772 11.9985 12.7667 11.059ZM21.19 13.1681C21.1489 13.2097 21.0926 13.2337 21.0335 13.235C20.9743 13.2363 20.917 13.2147 20.874 13.175L20.0155 12.3716C20.7977 11.8303 21.4436 11.1222 21.9046 10.3008L22.8336 11.1689C22.8763 11.2091 22.901 11.2641 22.9023 11.322C22.9036 11.3799 22.8815 11.436 22.8407 11.478L21.19 13.1681Z" fill="#A9855C"/>
<path d="M11.3109 14.3192L9.47612 12.6042C9.24833 12.3925 8.9441 12.2775 8.62991 12.2845C8.31572 12.2914 8.01712 12.4197 7.79938 12.6414L0.785622 19.8164C0.33752 20.2776 0.0942802 20.8935 0.109032 21.5295C0.123784 22.1656 0.39533 22.77 0.864355 23.2109C1.33588 23.6493 1.96569 23.8873 2.61614 23.873C3.2666 23.8587 3.88481 23.5931 4.33567 23.1344L11.3483 15.9594C11.565 15.7366 11.6826 15.4391 11.6756 15.1318C11.6686 14.8244 11.5374 14.5323 11.3109 14.3192ZM3.81277 22.4006C3.53243 22.6857 3.14813 22.8506 2.74382 22.8595C2.33951 22.8683 1.94805 22.7204 1.65494 22.4479L1.5773 22.3757C1.28575 22.1016 1.11696 21.7259 1.1078 21.3305C1.09865 20.9351 1.24987 20.5523 1.52843 20.2656L8.22508 13.416C8.3606 13.2785 8.54624 13.1989 8.74154 13.1946C8.93683 13.1903 9.12593 13.2617 9.26761 13.3932L10.4855 14.5316C10.6265 14.6641 10.7081 14.8457 10.7125 15.0368C10.717 15.2279 10.644 15.413 10.5094 15.5516L3.81277 22.4006Z" fill="#A9855C"/>
<path d="M16.3106 6.02659C16.4329 5.90153 16.4283 5.70322 16.3004 5.58366C16.1725 5.46411 15.9697 5.46857 15.8475 5.59364C15.7252 5.7187 15.7298 5.91701 15.8577 6.03657C15.9856 6.15612 16.1884 6.15166 16.3106 6.02659Z" fill="#A9855C"/>
<path d="M17.2357 6.89158C17.3579 6.76651 17.3534 6.56821 17.2255 6.44865C17.0976 6.3291 16.8948 6.33356 16.7725 6.45863C16.6503 6.58369 16.6548 6.78199 16.7827 6.90155C16.9106 7.02111 17.1134 7.01664 17.2357 6.89158Z" fill="#A9855C"/>
<path d="M18.1617 7.75729C18.284 7.63223 18.2794 7.43393 18.1515 7.31437C18.0236 7.19482 17.8208 7.19928 17.6985 7.32435C17.5763 7.44941 17.5809 7.64771 17.7087 7.76727C17.8366 7.88682 18.0394 7.88236 18.1617 7.75729Z" fill="#A9855C"/>
<path d="M17.1105 7.9027C17.1845 7.74553 17.1141 7.55948 16.9534 7.48716C16.7927 7.41483 16.6024 7.48362 16.5284 7.64079C16.4545 7.79796 16.5248 7.98401 16.6855 8.05634C16.8463 8.12866 17.0365 8.05988 17.1105 7.9027Z" fill="#A9855C"/>
<path d="M16.1847 7.03722C16.2587 6.88005 16.1883 6.694 16.0276 6.62168C15.8669 6.54935 15.6766 6.61814 15.6027 6.77531C15.5287 6.93249 15.599 7.11853 15.7598 7.19086C15.9205 7.26318 16.1107 7.1944 16.1847 7.03722Z" fill="#A9855C"/>
<path d="M15.1046 7.35607C15.1786 7.1989 15.1083 7.01285 14.9475 6.94053C14.7868 6.8682 14.5965 6.93699 14.5226 7.09416C14.4486 7.25133 14.519 7.43738 14.6797 7.50971C14.8404 7.58203 15.0307 7.51325 15.1046 7.35607Z" fill="#A9855C"/>
<path d="M15.9444 7.86003C15.8459 7.71635 15.6468 7.67803 15.4999 7.77443C15.353 7.87083 15.3138 8.06544 15.4124 8.20912C15.511 8.35279 15.71 8.39111 15.8569 8.29472C16.0038 8.19832 16.043 8.0037 15.9444 7.86003Z" fill="#A9855C"/>
<path d="M16.8702 8.72575C16.7716 8.58208 16.5726 8.54376 16.4257 8.64015C16.2788 8.73655 16.2396 8.93117 16.3382 9.07484C16.4367 9.21851 16.6358 9.25683 16.7827 9.16043C16.9296 9.06404 16.9688 8.86942 16.8702 8.72575Z" fill="#A9855C"/>
</svg>
