<svg width="132" height="132" viewBox="0 0 132 132" fill="none" xmlns="http://www.w3.org/2000/svg">
<path d="M60.3862 128.763V123.56L60.4526 123.537L86.1302 115.165L81.4242 113.695V83.9199L60.5018 88.8959L60.4602 88.7073L81.6137 83.6775V113.553L86.7633 115.161L86.4752 115.256L60.5758 123.699V128.502L87.8455 119.91L86.5453 115.577L86.7273 115.519L88.0805 120.037L60.3862 128.763Z" fill="white"/>
<path d="M60.6707 128.764V123.568L60.4622 123.845C67.9664 121.402 75.4699 118.955 82.9728 116.506L86.2062 115.452C86.2647 115.433 86.3158 115.396 86.3521 115.346C86.3883 115.296 86.4079 115.235 86.4079 115.173C86.4079 115.111 86.3883 115.05 86.3521 115C86.3158 114.95 86.2647 114.913 86.2062 114.894L81.5002 113.424L81.7086 113.703V83.9202C81.7077 83.876 81.6969 83.8326 81.6772 83.7933C81.6574 83.7539 81.6292 83.7196 81.5947 83.6928C81.5601 83.666 81.52 83.6474 81.4774 83.6385C81.4348 83.6295 81.3907 83.6305 81.3485 83.6411L63.0682 87.9898L60.4281 88.6171L60.7768 88.8095L60.7332 88.6171L60.5342 88.9731L79.0476 84.5705L81.6897 83.9432L81.3296 83.6642V113.553C81.3306 113.616 81.3514 113.677 81.3889 113.727C81.4264 113.777 81.4786 113.814 81.5381 113.832L86.6876 115.44V114.875C79.047 117.363 71.4076 119.855 63.7695 122.348L60.5001 123.414C60.441 123.432 60.3889 123.469 60.3515 123.518C60.314 123.568 60.293 123.629 60.2916 123.691V128.502C60.2922 128.546 60.3027 128.59 60.3224 128.629C60.342 128.669 60.3702 128.703 60.4049 128.73C60.4396 128.757 60.4798 128.776 60.5226 128.784C60.5653 128.793 60.6095 128.792 60.6517 128.781L84.5061 121.265L87.9177 120.189C87.9884 120.166 88.0476 120.116 88.0829 120.05C88.1182 119.984 88.1269 119.906 88.1072 119.833L86.8089 115.5L86.6099 115.854L86.7994 115.798L86.4488 115.606L87.804 120.124L87.9935 119.768L63.7979 127.382L60.3162 128.479C59.9675 128.589 60.1172 129.147 60.4679 129.037L84.6748 121.417L88.1565 120.32C88.2287 120.299 88.2898 120.25 88.3269 120.183C88.364 120.117 88.3743 120.038 88.3555 119.964L87.0004 115.452C86.9795 115.379 86.9315 115.317 86.8664 115.279C86.8013 115.241 86.7242 115.231 86.6516 115.25L86.4621 115.306C86.3915 115.328 86.3324 115.378 86.297 115.444C86.2617 115.51 86.2529 115.587 86.2725 115.66L87.5708 119.995L87.7699 119.639L63.9135 127.149L60.502 128.223L60.8621 128.502V123.691L60.6536 123.97L83.6494 116.466L86.8411 115.427C86.8996 115.408 86.9507 115.371 86.987 115.321C87.0233 115.271 87.0428 115.21 87.0428 115.148C87.0428 115.086 87.0233 115.025 86.987 114.975C86.9507 114.925 86.8996 114.888 86.8411 114.869L81.6916 113.26L81.9001 113.539V83.6777C81.8994 83.6334 81.8889 83.5899 81.8693 83.5503C81.8497 83.5108 81.8215 83.4762 81.7868 83.4494C81.7521 83.4225 81.7119 83.404 81.6691 83.3952C81.6264 83.3864 81.5822 83.3876 81.54 83.3987L63.0247 87.8013L60.3864 88.4305C60.3143 88.4516 60.2533 88.5004 60.2161 88.5665C60.1789 88.6326 60.1686 88.7108 60.1874 88.7845L60.231 88.977C60.2537 89.0483 60.3026 89.1081 60.3675 89.1439C60.4324 89.1797 60.5083 89.1888 60.5797 89.1694L78.8619 84.8226L81.502 84.1953L81.1419 83.9163V113.695C81.1433 113.758 81.1642 113.819 81.2016 113.869C81.239 113.919 81.2911 113.956 81.3504 113.974L86.0546 115.452V114.894L63.3658 122.285L60.3106 123.282C60.2511 123.3 60.1989 123.336 60.1614 123.386C60.1239 123.437 60.1031 123.498 60.1021 123.561V128.756C60.1011 128.832 60.1301 128.906 60.1827 128.961C60.2353 129.016 60.3072 129.047 60.3826 129.048C60.458 129.049 60.5307 129.02 60.5847 128.967C60.6387 128.913 60.6697 128.84 60.6707 128.764V128.764Z" fill="white"/>
<path d="M60.3862 120.295V89.379H60.5758V120.037L81.1134 113.724L81.1664 113.909L60.3862 120.295Z" fill="white"/>
<path d="M60.6706 120.295V89.379L60.3863 89.6676H60.5759L60.2916 89.379V120.037C60.2921 120.081 60.3026 120.125 60.3222 120.165C60.3419 120.204 60.3701 120.238 60.4049 120.265C60.4396 120.292 60.4799 120.31 60.5227 120.319C60.5655 120.327 60.6096 120.326 60.6517 120.314L78.6306 114.788L81.1874 114.003L80.8387 113.801L80.8936 113.993L81.0926 113.637L62.8976 119.227L60.303 120.026C59.9542 120.133 60.102 120.69 60.4546 120.582L78.6496 115.002L81.2348 114.186C81.3051 114.163 81.3639 114.113 81.3992 114.047C81.4345 113.981 81.4435 113.904 81.4243 113.832L81.3694 113.639C81.347 113.568 81.2982 113.508 81.2332 113.472C81.1682 113.436 81.092 113.427 81.0206 113.447L63.0398 118.971L60.483 119.758L60.8431 120.037V89.379C60.8424 89.3056 60.8145 89.2352 60.765 89.1817C60.7155 89.1283 60.648 89.0956 60.5759 89.0903H60.3863C60.3113 89.0913 60.2395 89.1221 60.1864 89.176C60.1333 89.2299 60.103 89.3027 60.1021 89.379V120.295C60.1021 120.372 60.132 120.445 60.1853 120.499C60.2386 120.553 60.3109 120.584 60.3863 120.584C60.4617 120.584 60.5341 120.553 60.5874 120.499C60.6407 120.445 60.6706 120.372 60.6706 120.295Z" fill="white"/>
<path d="M59.3323 88.7055L25.0859 84.4549L26.8656 80.6412L28.5676 80.0658L29.14 78.513L37.9191 77.7375L37.9343 77.93L29.2765 78.6939L28.7117 80.2198L27.0021 80.799L25.3702 84.2972L59.3551 88.5131L59.3323 88.7055Z" fill="white"/>
<path d="M59.3323 88.4169L47.7443 86.9737L29.3598 84.6936L25.0878 84.1625L25.3342 84.5974L26.1833 82.7771C26.4619 82.1806 26.6931 81.307 27.1082 80.7932C26.9186 81.0357 27.0343 80.8606 27.2408 80.8144C27.457 80.755 27.6696 80.6831 27.8777 80.5989C28.1108 80.5219 28.5164 80.4719 28.7116 80.3122C29.1077 79.9889 29.2423 79.0557 29.4167 78.5804L29.1418 78.7921L37.9209 78.0224L37.6423 77.7376L37.6575 77.93L37.9418 77.6414L29.284 78.4111C29.2223 78.4133 29.1627 78.4348 29.1135 78.4727C29.0643 78.5106 29.0279 78.563 29.0092 78.6227L28.6301 79.6445C28.5821 79.8081 28.5232 79.9681 28.4538 80.1236C28.6434 79.7696 28.6434 80.0101 28.4652 80.0082C28.0672 80.0082 27.0513 80.3603 26.7594 80.6643C26.3804 81.0491 26.1738 81.9208 25.9463 82.4076L25.1333 84.1509C25.1096 84.1952 25.0975 84.2448 25.0981 84.2951C25.0987 84.3454 25.112 84.3947 25.1367 84.4383C25.1614 84.4819 25.1967 84.5184 25.2392 84.5442C25.2818 84.57 25.3301 84.5844 25.3796 84.5858L36.8122 86.0116L55.1588 88.288L59.355 88.8075L59.0707 88.5189L59.048 88.7113C59.0044 89.0788 59.573 89.075 59.6166 88.7113L59.6393 88.5189C59.6602 88.3515 59.4915 88.2476 59.355 88.2302L47.913 86.8121L29.5664 84.5339L25.3702 84.0143L25.6147 84.4473L26.4713 82.6135L26.9774 81.5283C27.0608 81.3493 27.4152 80.8586 27.0987 81.0742C27.582 80.7432 28.4008 80.8471 28.8556 80.4738C29.2461 80.1563 29.3788 79.2404 29.5493 78.7767L29.2764 78.9883L37.9342 78.2187C38.008 78.2157 38.0778 78.1841 38.1293 78.1304C38.1808 78.0767 38.21 78.005 38.2109 77.93L38.1957 77.7376C38.1943 77.6615 38.1639 77.589 38.1109 77.5351C38.0579 77.4813 37.9864 77.4505 37.9115 77.449L29.1324 78.2187C29.0709 78.221 29.0117 78.2426 28.9628 78.2805C28.9139 78.3184 28.8778 78.3707 28.8594 78.4303L28.4804 79.4713C28.432 79.6378 28.3718 79.8005 28.3003 79.9581C28.4747 79.6464 28.469 79.835 28.1904 79.8831C27.7526 79.9581 26.913 80.1736 26.6059 80.5161C26.187 80.9818 25.952 81.917 25.6886 82.4846L24.8395 84.3049C24.8152 84.3487 24.8025 84.3982 24.8027 84.4485C24.8029 84.4988 24.816 84.5482 24.8406 84.5918C24.8653 84.6355 24.9007 84.6719 24.9433 84.6975C24.986 84.723 25.0344 84.737 25.084 84.7378L36.6719 86.1771L55.0565 88.4573L59.3285 88.9884C59.6943 89.0384 59.6905 88.4611 59.3323 88.4169Z" fill="white"/>
<path d="M60.576 88.2244H60.3864V84.2683L29.3867 80.4314L29.4095 80.239L60.576 84.099V88.2244Z" fill="white"/>
<path d="M60.5754 87.9358H60.3859L60.6702 88.2245V84.2683C60.6683 84.1924 60.6377 84.1201 60.5848 84.0664C60.5319 84.0127 60.4607 83.9817 60.3859 83.9797L33.2829 80.6239L29.3862 80.1429L29.6705 80.4315L29.6932 80.2391L29.4089 80.5277L56.6862 83.9047L60.5754 84.3876L60.2911 84.099V88.2245C60.2911 88.301 60.3211 88.3744 60.3744 88.4286C60.4277 88.4827 60.5 88.5131 60.5754 88.5131C60.6508 88.5131 60.7231 88.4827 60.7764 88.4286C60.8298 88.3744 60.8597 88.301 60.8597 88.2245V84.099C60.8578 84.0231 60.8272 83.9508 60.7743 83.8971C60.7214 83.8434 60.6502 83.8123 60.5754 83.8104L33.3 80.4315L29.4089 79.9485C29.244 79.9293 29.1417 80.0986 29.1246 80.2372L29.1019 80.4296C29.081 80.597 29.2497 80.7009 29.3862 80.7182L56.4891 84.0721L60.3859 84.557L60.1016 84.2683V88.2245C60.1026 88.3007 60.1328 88.3736 60.1859 88.4275C60.239 88.4814 60.3108 88.5121 60.3859 88.5131H60.5754C60.6508 88.5131 60.7231 88.4827 60.7764 88.4286C60.8298 88.3744 60.8597 88.301 60.8597 88.2245C60.8597 88.1479 60.8298 88.0745 60.7764 88.0204C60.7231 87.9663 60.6508 87.9358 60.5754 87.9358V87.9358Z" fill="white"/>
<path d="M61.07 84.278L61.0283 84.0895L82.3184 79.4579L84.8979 83.2851L82.1061 83.8932L82.0682 83.7046L84.5833 83.1581L82.235 79.6734L61.07 84.278Z" fill="white"/>
<path d="M61.3437 84.201L61.3039 84.0085L61.1144 84.3645L79.7737 80.3045L82.4044 79.7272L82.0841 79.5944L84.6466 83.4313L84.8171 83.008L82.0253 83.6141L82.3741 83.8065L82.3343 83.6141L82.1447 83.9701L84.6598 83.4217C84.7018 83.41 84.7406 83.3886 84.7731 83.3593C84.8057 83.33 84.8312 83.2935 84.8477 83.2526C84.8642 83.2117 84.8712 83.1675 84.8682 83.1234C84.8652 83.0793 84.8523 83.0365 84.8304 82.9983L82.4802 79.5271C82.4473 79.4736 82.3987 79.432 82.3412 79.4082C82.2837 79.3843 82.2203 79.3795 82.1599 79.3943L63.637 83.4236L60.995 84.0008C60.6367 84.0797 60.7884 84.6358 61.1447 84.5589L79.6676 80.5277L82.3115 79.9504L81.9893 79.8176L84.3376 83.3004L84.5082 82.8771L81.9931 83.4255C81.9209 83.447 81.8598 83.4962 81.8227 83.5626C81.7856 83.6291 81.7753 83.7075 81.7941 83.7815L81.8339 83.9739C81.8551 84.0468 81.9033 84.1085 81.9683 84.1461C82.0333 84.1838 82.1101 84.1944 82.1826 84.1759L84.9744 83.5679C85.0164 83.5562 85.0552 83.5349 85.0878 83.5056C85.1203 83.4763 85.1458 83.4397 85.1623 83.3988C85.1788 83.3579 85.1858 83.3137 85.1828 83.2697C85.1798 83.2256 85.1669 83.1828 85.145 83.1446L82.5617 79.3116C82.5283 79.2582 82.4793 79.2167 82.4215 79.1929C82.3638 79.1691 82.3001 79.1641 82.2395 79.1788L63.5802 83.2389L60.9514 83.8161C60.8792 83.8377 60.8181 83.8868 60.781 83.9532C60.7438 84.0197 60.7336 84.0981 60.7524 84.1721L60.7922 84.3645C60.8718 84.7166 61.4214 84.5646 61.3437 84.201Z" fill="white"/>
<path d="M73.9567 77.7439L73.9263 77.9338L82.0768 79.2815L82.1072 79.0915L73.9567 77.7439Z" fill="white"/>
<path d="M82.1483 78.998L73.9984 77.6511L74.1974 78.0051L74.2278 77.8127L73.8771 78.0051L82.027 79.352L81.828 78.998L81.7976 79.1904C81.7408 79.5541 82.2885 79.7118 82.3473 79.3443L82.3776 79.1519C82.3973 79.0792 82.3886 79.0016 82.3533 78.9353C82.3179 78.8689 82.2588 78.819 82.1881 78.7959L74.0382 77.449C73.9654 77.43 73.8881 77.4404 73.8227 77.4781C73.7573 77.5158 73.7088 77.5778 73.6876 77.6511L73.6573 77.8435C73.6376 77.9162 73.6463 77.9938 73.6816 78.0601C73.7169 78.1264 73.7761 78.1764 73.8468 78.1994L81.9966 79.5464C82.3549 79.6137 82.5084 79.0576 82.1483 78.998Z" fill="white"/>
<path d="M51.2883 121.051L51.1765 121.03L26.8369 116.397L27.0283 102.419L28.9237 100.689L28.8592 84.8379H29.0487L29.1132 100.774L27.2179 102.508L27.0302 116.239L51.0988 120.82V106.069L53.7522 104.205V120.233L51.6049 121.026L51.5404 120.845L53.5627 120.099V104.571L51.2883 106.17V121.051Z" fill="white"/>
<path d="M51.3641 120.774C44.2567 119.418 37.1493 118.065 30.0419 116.714L26.9127 116.12L27.1212 116.397L27.2065 110.272L27.269 105.654C27.2823 104.692 27.4093 103.651 27.3088 102.693C27.2984 102.613 27.2984 102.533 27.3088 102.454C27.2653 102.646 27.1913 102.594 27.4055 102.454C27.9419 102.123 28.4991 101.507 28.9407 101.051C29.3046 100.666 29.2023 100.299 29.2004 99.7793L29.1681 91.6111L29.1397 84.8341L28.8554 85.1227H29.045L28.7607 84.8341L28.8194 99.1136V100.289C28.8194 100.574 28.7 100.847 28.8914 100.578C28.4005 101.267 27.1743 101.694 26.926 102.517C26.7365 103.116 26.9051 104.03 26.8957 104.649L26.8388 108.99L26.7403 116.239C26.7405 116.302 26.761 116.363 26.7986 116.413C26.8363 116.463 26.889 116.499 26.9487 116.516L47.9867 120.522L51.0192 121.099C51.0613 121.111 51.1053 121.112 51.1479 121.103C51.1905 121.094 51.2307 121.076 51.2653 121.049C51.2999 121.023 51.3282 120.988 51.3479 120.949C51.3677 120.91 51.3784 120.866 51.3793 120.822V107.199C51.3793 106.934 51.476 106.429 51.3793 106.185C51.2997 105.981 51.2675 106.281 51.3092 106.268C51.5688 106.197 51.8929 105.858 52.1147 105.704L53.8925 104.453L53.4642 104.205V120.234L53.6726 119.955L51.5252 120.747L51.8759 120.949L51.8114 120.769L51.6219 121.124L53.6442 120.378C53.7035 120.36 53.7556 120.323 53.793 120.273C53.8305 120.223 53.8514 120.162 53.8527 120.099V104.571C53.852 104.52 53.8383 104.471 53.813 104.427C53.7877 104.383 53.7517 104.347 53.7084 104.322C53.6651 104.297 53.6162 104.284 53.5663 104.284C53.5165 104.284 53.4676 104.297 53.4243 104.322L51.8285 105.446C51.5347 105.652 51.1102 105.831 51.004 106.189C50.8145 106.845 51.004 107.861 51.004 108.536V121.051C51.004 121.128 51.034 121.201 51.0873 121.255C51.1406 121.31 51.2129 121.34 51.2883 121.34C51.3637 121.34 51.436 121.31 51.4894 121.255C51.5427 121.201 51.5726 121.128 51.5726 121.051V109.612C51.5726 108.579 51.6807 107.478 51.5726 106.449C51.5632 106.362 51.5821 106.27 51.5726 106.183C51.584 106.293 51.33 106.408 51.5158 106.36C51.6597 106.286 51.793 106.192 51.9119 106.081L53.7068 104.821L53.2784 104.571V120.099L53.4869 119.82L51.4646 120.566C51.3927 120.588 51.3319 120.638 51.2948 120.704C51.2578 120.77 51.2473 120.849 51.2656 120.922L51.33 121.103C51.3536 121.175 51.4029 121.234 51.468 121.27C51.533 121.305 51.6091 121.315 51.6807 121.296L53.828 120.503C53.8873 120.485 53.9394 120.448 53.9769 120.398C54.0143 120.348 54.0352 120.287 54.0365 120.224V104.195C54.0356 104.145 54.0219 104.095 53.9965 104.052C53.9712 104.008 53.9353 103.972 53.8921 103.947C53.849 103.922 53.8002 103.909 53.7504 103.908C53.7007 103.908 53.6517 103.921 53.6082 103.945L52.1298 104.984C51.7925 105.221 51.0571 105.535 50.8524 105.914C50.5909 106.402 50.8145 107.522 50.8145 108.05V120.82L51.1746 120.541L30.1367 116.535L27.1042 115.958L27.3145 116.237L27.3979 110.132L27.4605 105.567C27.4718 104.661 27.6292 103.62 27.4984 102.72C27.4888 102.656 27.4888 102.591 27.4984 102.527C27.4131 102.858 27.4984 102.606 27.6879 102.469C28.2478 102.071 28.7571 101.605 29.2042 101.08C29.4885 100.707 29.3937 100.266 29.3937 99.7871L29.3615 91.5726L29.333 84.8379C29.3321 84.7617 29.3018 84.6889 29.2487 84.635C29.1956 84.581 29.1238 84.5503 29.0487 84.5493H28.8592C28.7841 84.5503 28.7124 84.581 28.6593 84.635C28.6062 84.6889 28.5759 84.7617 28.5749 84.8379L28.6337 99.1367V100.27C28.6337 100.374 28.6337 100.478 28.6337 100.58C28.6204 100.832 28.755 100.437 28.6678 100.528C28.1314 101.088 26.9487 101.682 26.7384 102.452C26.5583 103.102 26.7175 104.043 26.708 104.713L26.6493 109.121L26.5488 116.397C26.5494 116.46 26.5702 116.522 26.6081 116.572C26.6461 116.622 26.6991 116.659 26.7592 116.676L48.2236 120.761L51.2087 121.338C51.5707 121.398 51.7243 120.84 51.3641 120.774Z" fill="white"/>
<path d="M60.197 128.75L60.0833 128.727L20.9375 120.624L22.105 116.676L22.287 116.73L21.1801 120.478L60.0074 128.515V123.709L22.124 116.327L26.5325 115.261L26.5779 115.45L23.0261 116.308L60.197 123.551V128.75Z" fill="white"/>
<path d="M60.272 128.473C55.8939 127.575 51.5163 126.669 47.1394 125.754L25.8911 121.357L21.0069 120.345L21.1964 120.701L22.3639 116.753L22.0133 116.945L22.2028 117.001L22.0133 116.645L20.9064 120.393C20.8862 120.466 20.8947 120.544 20.9301 120.61C20.9655 120.677 21.025 120.727 21.096 120.749L34.2305 123.472L55.1395 127.799L59.9404 128.792C59.9824 128.803 60.0264 128.805 60.0691 128.796C60.1117 128.787 60.1518 128.769 60.1865 128.742C60.2211 128.716 60.2494 128.681 60.2691 128.642C60.2888 128.603 60.2996 128.559 60.3005 128.515V123.705C60.2999 123.642 60.2793 123.581 60.2417 123.531C60.2041 123.481 60.1516 123.445 60.092 123.428L47.2721 120.926L26.9165 116.968L22.199 116.05V116.606L26.6075 115.54L26.2588 115.338L26.3024 115.531L26.5014 115.175L22.9496 116.029C22.8908 116.047 22.8393 116.084 22.8028 116.134C22.7662 116.184 22.7464 116.245 22.7464 116.307C22.7464 116.37 22.7662 116.43 22.8028 116.48C22.8393 116.53 22.8908 116.567 22.9496 116.585L35.5003 119.031L55.5148 122.931L60.1204 123.828L59.9119 123.551V128.746C59.9119 128.823 59.9419 128.896 59.9952 128.95C60.0485 129.004 60.1208 129.035 60.1962 129.035C60.2716 129.035 60.3439 129.004 60.3973 128.95C60.4506 128.896 60.4805 128.823 60.4805 128.746V123.551C60.4804 123.488 60.46 123.426 60.4223 123.376C60.3847 123.325 60.332 123.289 60.272 123.272L47.7213 120.826L27.7068 116.926L23.1012 116.029V116.585L26.6492 115.727C26.7212 115.706 26.7823 115.657 26.8195 115.591C26.8566 115.525 26.867 115.447 26.8482 115.373L26.8046 115.181C26.7819 115.109 26.733 115.049 26.6681 115.014C26.6032 114.978 26.5272 114.969 26.4559 114.988L22.0455 116.054C21.9867 116.072 21.9353 116.109 21.8987 116.159C21.8621 116.209 21.8424 116.27 21.8424 116.332C21.8424 116.395 21.8621 116.455 21.8987 116.505C21.9353 116.555 21.9867 116.592 22.0455 116.61L34.8654 119.112L55.2116 123.076L59.929 123.995L59.7205 123.716V128.527L60.0806 128.248L46.9632 125.533L26.0541 121.194L21.2533 120.199L21.4428 120.555L22.561 116.799C22.5793 116.725 22.5687 116.647 22.5316 116.581C22.4946 116.515 22.4338 116.466 22.362 116.445L22.1725 116.389C22.0996 116.369 22.0221 116.38 21.9566 116.417C21.891 116.455 21.8427 116.517 21.8219 116.591L20.6562 120.539C20.6361 120.612 20.6446 120.69 20.6799 120.756C20.7153 120.823 20.7748 120.873 20.8458 120.895L34.2305 123.67L55.3746 128.046L60.1128 129.029C60.4786 129.102 60.6303 128.546 60.272 128.473Z" fill="white"/>
<path d="M27.7063 102.751L27.6782 102.942L50.4215 106.405L50.4496 106.215L27.7063 102.751Z" fill="white"/>
<path d="M50.4969 106.129L30.5961 103.099L27.7531 102.666L27.9521 103.02L27.9806 102.827L27.6318 103.029L47.5326 106.06L50.3755 106.493L50.1765 106.139L50.1481 106.331C50.095 106.693 50.6428 106.851 50.6959 106.483L50.7243 106.291C50.7451 106.152 50.6921 105.962 50.5348 105.937L30.6302 102.908L27.7872 102.475C27.6508 102.454 27.4631 102.508 27.4385 102.677L27.4101 102.87C27.3892 103.008 27.4423 103.199 27.6091 103.224L47.5098 106.254L50.3528 106.687C50.7053 106.739 50.8589 106.183 50.4969 106.129Z" fill="white"/>
<path d="M30.55 100.832L30.5229 101.022L52.8878 104.294L52.9149 104.103L30.55 100.832Z" fill="white"/>
<path d="M52.9624 104.012L33.3838 101.149L30.5977 100.741L30.7872 101.095L30.8138 100.903L30.4631 101.105L50.0417 103.968L52.8278 104.376L52.6288 104.022L52.6023 104.215C52.5511 104.576 53.0988 104.734 53.1519 104.367L53.1784 104.174C53.1974 104.036 53.1462 103.845 52.9889 103.82L33.4103 100.957L30.6299 100.551C30.4935 100.53 30.3039 100.584 30.2793 100.753L30.2528 100.945C30.2338 101.084 30.285 101.274 30.4518 101.299L50.0303 104.163L52.8164 104.571C53.169 104.621 53.3225 104.064 52.9624 104.012Z" fill="white"/>
<path d="M55.5668 119.297L55.5356 119.486L60.0842 120.256L60.1154 120.066L55.5668 119.297Z" fill="white"/>
<path d="M60.163 119.983L55.6142 119.214L55.8038 119.568L55.836 119.375L55.4854 119.568L60.0341 120.337L59.8446 119.983L59.8124 120.176C59.7536 120.539 60.3013 120.697 60.3601 120.33L60.3923 120.137C60.4115 120.065 60.4026 119.987 60.3673 119.921C60.3321 119.855 60.2732 119.805 60.2028 119.781L55.654 119.012C55.5814 118.992 55.5042 119.002 55.4389 119.04C55.3737 119.078 55.3257 119.14 55.3053 119.214L55.2731 119.406C55.2539 119.479 55.2628 119.556 55.2981 119.622C55.3333 119.689 55.3922 119.739 55.4626 119.762L60.0114 120.532C60.3696 120.599 60.5231 120.043 60.163 119.983Z" fill="white"/>
<path d="M56.4062 118.627H56.2167V102.933L32.9858 99.6735L33.0124 99.4811L56.4062 102.764V118.627Z" fill="white"/>
<path d="M56.4058 118.338H56.2163L56.5006 118.627V102.933C56.5005 102.87 56.48 102.808 56.4424 102.758C56.4048 102.708 56.352 102.671 56.2921 102.654L35.9497 99.8005L33.0613 99.3944L33.2508 99.7485L33.2754 99.5561L32.9267 99.7581L53.4397 102.644L56.3206 103.049L56.1121 102.77V118.627C56.1121 118.703 56.142 118.777 56.1953 118.831C56.2487 118.885 56.321 118.915 56.3964 118.915C56.4718 118.915 56.5441 118.885 56.5974 118.831C56.6507 118.777 56.6807 118.703 56.6807 118.627V102.764C56.6801 102.701 56.6595 102.64 56.6219 102.59C56.5843 102.54 56.5318 102.504 56.4722 102.487L35.9592 99.6003L33.0783 99.1963C32.9419 99.177 32.7504 99.227 32.7277 99.3983L32.7031 99.5907C32.6841 99.7273 32.7334 99.9217 32.8926 99.9448L53.235 102.8L56.1234 103.204L55.915 102.927V118.627C55.9154 118.666 55.9237 118.705 55.9392 118.741C55.9547 118.777 55.9772 118.809 56.0053 118.836C56.0335 118.863 56.0666 118.884 56.1029 118.898C56.1391 118.911 56.1777 118.917 56.2163 118.915H56.4058C56.4812 118.915 56.5536 118.885 56.6069 118.831C56.6602 118.777 56.6901 118.703 56.6901 118.627C56.6901 118.55 56.6602 118.477 56.6069 118.423C56.5536 118.369 56.4812 118.338 56.4058 118.338Z" fill="white"/>
<path d="M55.8947 104.486L53.9995 105.448L54.0843 105.62L55.9794 104.658L55.8947 104.486Z" fill="white"/>
<path d="M54.3207 105.483L54.2354 105.311L54.133 105.706L56.0283 104.744L55.6493 104.64L55.7346 104.811L55.8369 104.417L53.9416 105.379C53.6137 105.546 53.9018 106.043 54.2278 105.877L56.1231 104.915C56.1846 104.876 56.2292 104.814 56.2482 104.743C56.2671 104.672 56.259 104.596 56.2254 104.53L56.1402 104.359C56.1015 104.294 56.0392 104.246 55.9667 104.227C55.8941 104.207 55.817 104.218 55.7516 104.255L53.8563 105.217C53.7948 105.257 53.7502 105.318 53.7312 105.389C53.7123 105.461 53.7204 105.536 53.754 105.602L53.8392 105.773C53.9966 106.106 54.4874 105.814 54.3207 105.483Z" fill="white"/>
<path d="M55.8943 117.771L53.999 118.54L54.0694 118.719L55.9647 117.949L55.8943 117.771Z" fill="white"/>
<path d="M54.3454 118.64L54.2753 118.461L54.0763 118.815L55.9716 118.046L55.6228 117.844L55.693 118.023L55.892 117.669L53.9967 118.438C53.6612 118.575 53.8071 119.133 54.1464 118.994L56.0417 118.225C56.1725 118.173 56.3033 118.032 56.2407 117.871L56.1706 117.692C56.1194 117.559 55.9811 117.426 55.8219 117.499L53.9265 118.269C53.7958 118.321 53.665 118.461 53.7275 118.623L53.7977 118.802C53.9417 119.133 54.4819 118.985 54.3454 118.64Z" fill="white"/>
<path d="M60.4848 83.3198L60.4697 83.3179L29.7656 79.2771L29.7884 79.0846L60.4773 83.1235L80.7533 78.8691L80.7931 79.0577L60.4848 83.3198Z" fill="white"/>
<path d="M60.4847 83.0311C51.5059 81.8573 42.5291 80.6759 33.5542 79.4867L29.7635 78.9884L30.0478 79.277L30.0706 79.0846L29.7863 79.3732L51.9614 82.2922L57.7535 83.0619C58.6159 83.1754 59.5673 83.4294 60.4411 83.4159C61.2106 83.4044 62.0578 83.0946 62.8083 82.9368L69.2145 81.5899L80.8308 79.1519L80.4764 78.946L80.5143 79.1384L80.7038 78.7825L62.9372 82.5115L60.3956 83.0445C60.0374 83.1196 60.189 83.6757 60.5472 83.6006L78.312 79.8735L80.8555 79.3405C80.9262 79.3174 80.9853 79.2675 81.0207 79.2011C81.056 79.1348 81.0647 79.0572 81.045 78.9845L81.0071 78.7921C80.9859 78.7192 80.9377 78.6575 80.8727 78.6199C80.8077 78.5822 80.7309 78.5715 80.6583 78.5901L70.8899 80.6412L64.0497 82.0767C62.8841 82.321 61.6256 82.7521 60.4354 82.8348C60.4828 82.8348 60.2458 82.8117 60.081 82.7867C59.6109 82.7136 59.1333 82.6616 58.6633 82.5943L53.4303 81.9054L39.0619 80.0139L29.7749 78.7902C29.61 78.769 29.5096 78.9422 29.4906 79.0788L29.4679 79.2712C29.4451 79.4386 29.6157 79.5406 29.7522 79.5598L56.8077 83.1254L60.4847 83.6103C60.8467 83.6545 60.8429 83.0773 60.4847 83.0311Z" fill="white"/>
<path d="M58.099 80.9376C56.7268 80.9376 55.1916 80.8991 53.4649 80.8164C43.4766 80.3334 38.3441 79.3328 38.2115 77.8416C38.166 77.3336 38.6853 76.7621 38.9942 76.4215C39.8869 75.4383 41.0658 75.1304 41.8978 75.0438C42.2419 74.9613 42.5517 74.7707 42.7829 74.4993C42.9528 74.3016 43.0748 74.0664 43.1393 73.8123C40.8837 70.4937 39.2226 66.7971 38.2323 62.8925L37.116 62.3152C36.7698 62.0225 36.4866 61.6607 36.2838 61.2522C36.081 60.8438 35.963 60.3974 35.9371 59.9408C35.9267 59.3859 36.0614 58.8381 36.3275 58.3533L36.3616 58.2917L36.4299 58.3052C42.6598 59.6296 49.0014 60.3384 55.3659 60.4218C61.9073 60.503 68.4405 59.9229 74.8687 58.6901L74.935 58.6766L74.9691 58.7362C75.2727 59.2789 75.4087 59.9017 75.3596 60.5238C75.2691 61.3809 74.8471 62.1664 74.1864 62.7078L74.1655 62.7251L72.1375 62.9214C72.1982 63.5999 72.1982 64.2825 72.1375 64.961C72.0466 65.9231 71.7282 67.4625 70.0432 70.9587C69.5315 72.0209 68.9781 73.0869 68.3962 74.126C68.646 74.1985 68.877 74.3259 69.0728 74.4993C69.3936 74.7948 69.6022 75.1951 69.6623 75.6307C70.5329 75.6429 71.3804 75.9167 72.0977 76.4177C72.6675 76.8241 73.1324 77.364 73.4529 77.9917L73.5022 78.084L73.4055 78.1244C71.7375 78.8233 70.023 79.402 68.2749 79.8562C66.1502 80.4065 63.2883 80.9376 58.099 80.9376ZM38.401 77.8262C38.4844 78.7729 41.1681 80.0275 53.4725 80.624C61.7095 81.0223 65.5551 80.3623 68.2294 79.6619C69.9343 79.2152 71.6073 78.6514 73.2368 77.9744C72.9321 77.4129 72.5049 76.9298 71.9878 76.562C71.2786 76.0694 70.4382 75.8082 69.5789 75.8135H69.4936L69.4841 75.7269C69.4453 75.3081 69.2541 74.9191 68.9477 74.6359C68.7434 74.4546 68.4967 74.3295 68.2313 74.2722L68.1062 74.2433L68.1707 74.1298C68.7715 73.06 69.3439 71.9612 69.8764 70.8587C71.7585 66.9622 71.8911 65.5363 71.948 64.9322C72.0143 64.2346 72.0143 63.5323 71.948 62.8348V62.7386L74.0973 62.5461C74.7056 62.0386 75.0935 61.309 75.1776 60.5142C75.223 59.954 75.1071 59.3925 74.844 58.8979C68.4219 60.1217 61.896 60.696 55.3621 60.6123C49.0096 60.5295 42.6796 59.8252 36.4602 58.5092C36.2319 58.9488 36.1172 59.44 36.1266 59.9369C36.15 60.3648 36.2592 60.7833 36.4476 61.1668C36.636 61.5503 36.8995 61.8907 37.2221 62.1671L38.3877 62.7578V62.8021C38.7862 64.3711 39.2928 65.9098 39.904 67.4067C40.8146 69.6335 41.955 71.7562 43.3061 73.7392L43.3307 73.7738V73.8142C43.2646 74.114 43.1273 74.3927 42.9308 74.6262C42.6689 74.9303 42.3195 75.1431 41.932 75.2343C41.1227 75.317 39.9912 75.6191 39.1383 76.5524C38.8502 76.8699 38.3669 77.4009 38.4048 77.8262H38.401Z" fill="white"/>
<path d="M58.0983 80.649C54.266 80.649 50.4185 80.4277 46.6051 80.0409C44.3137 79.8081 41.7967 79.6195 39.6379 78.7267C39.2589 78.5728 38.5823 78.3111 38.5008 77.8416C38.3586 77.0834 39.7327 76.0867 40.2634 75.8096C40.9173 75.471 41.6318 75.496 42.2838 75.217C42.5277 75.1155 42.7481 74.9635 42.9308 74.7706C43.1136 74.5778 43.2547 74.3484 43.3452 74.0971C43.5347 73.4255 42.7917 72.7771 42.4544 72.2248C41.394 70.4928 40.4901 68.667 39.7536 66.7697C39.3404 65.6935 38.9809 64.5999 38.6751 63.489C38.4704 62.7424 38.4534 62.6904 37.809 62.3633C37.4655 62.198 37.1596 61.9621 36.9104 61.6706C36.6613 61.3792 36.4743 61.0385 36.3614 60.67C36.2485 60.3015 36.2121 59.9132 36.2544 59.5297C36.2967 59.1462 36.4169 58.7758 36.6073 58.4418L36.2851 58.5746C49.0431 61.2858 62.2024 61.4166 75.0102 58.9594L74.688 58.8266C74.8764 59.1548 74.9992 59.5175 75.0493 59.8939C75.0993 60.2703 75.0758 60.6531 74.9798 61.0202C74.8592 61.4268 74.6536 61.8022 74.3771 62.1209C74.2956 62.2152 73.9317 62.5346 74.0644 62.4711C74.235 62.3903 73.8919 62.4711 73.8123 62.4711C73.5925 62.4845 73.3726 62.5115 73.1547 62.5327L72.1445 62.625C72.0694 62.626 71.9976 62.6567 71.9445 62.7106C71.8914 62.7646 71.8611 62.8374 71.8602 62.9136C72.1426 66.9121 70.0198 70.6104 68.1491 73.972C68.128 74.0104 68.1157 74.0531 68.1131 74.0969C68.1105 74.1408 68.1176 74.1847 68.134 74.2254C68.1504 74.266 68.1756 74.3024 68.2078 74.3319C68.2399 74.3613 68.2782 74.383 68.3197 74.3953C68.5973 74.4946 68.8432 74.6682 69.0314 74.8979C69.2197 75.1276 69.3431 75.4048 69.3887 75.6999C69.4052 75.7606 69.4408 75.8141 69.4901 75.8523C69.5394 75.8905 69.5996 75.9114 69.6616 75.9116C70.4119 75.9276 71.1438 76.151 71.7783 76.5579C72.4128 76.9648 72.926 77.5397 73.2627 78.2206L73.4333 77.7973C68.4657 79.8831 63.4563 80.6355 58.1059 80.649C58.0305 80.649 57.9582 80.6794 57.9048 80.7335C57.8515 80.7876 57.8216 80.861 57.8216 80.9376C57.8216 81.0141 57.8515 81.0876 57.9048 81.1417C57.9582 81.1958 58.0305 81.2262 58.1059 81.2262C63.5018 81.2128 68.5718 80.4566 73.583 78.3534C73.6243 78.3407 73.6624 78.3189 73.6943 78.2894C73.7262 78.2599 73.7513 78.2236 73.7677 78.183C73.784 78.1424 73.7912 78.0987 73.7888 78.0549C73.7863 78.0112 73.7743 77.9685 73.7536 77.9301C73.366 77.164 72.782 76.5184 72.0631 76.0612C71.3443 75.604 70.5172 75.3522 69.6692 75.3324L69.944 75.5441C69.8769 75.1507 69.7049 74.7836 69.4465 74.4827C69.1882 74.1818 68.8535 73.9585 68.4789 73.8373L68.6476 74.2606C70.5657 70.8086 72.7244 67.0083 72.4382 62.9079L72.1539 63.1965C72.9121 63.1253 74.0341 63.285 74.6178 62.7078C75.1581 62.1748 75.5074 61.4739 75.6104 60.7164C75.7135 59.9588 75.5642 59.1881 75.1864 58.5265C75.1539 58.4727 75.1052 58.4309 75.0475 58.4074C74.9899 58.3838 74.9263 58.3797 74.8661 58.3956C62.1584 60.8316 49.1023 60.7008 36.4443 58.0108C36.384 57.9947 36.3201 57.999 36.2624 58.0229C36.2046 58.0469 36.1561 58.0892 36.124 58.1436C35.7925 58.7307 35.6396 59.4043 35.6844 60.0795C35.7293 60.7548 35.9699 61.4014 36.3761 61.9381C36.5682 62.2116 36.8093 62.4459 37.0869 62.6289C37.3143 62.7693 37.6441 62.8405 37.845 63.0137C37.898 63.0599 38.0137 63.0676 38.0554 63.1215C38.1425 63.2331 38.1691 63.7641 38.2259 63.9643C38.8313 66.0903 39.6367 68.1523 40.6311 70.1217C41.0954 71.0395 41.5996 71.9381 42.1473 72.8156C42.5264 73.4217 43.1519 74.0355 42.2592 74.5954C41.9408 74.7879 41.5636 74.7879 41.2073 74.8745C39.8692 75.1727 36.6054 77.3143 38.5368 78.7863C40.053 79.9409 42.4942 80.1063 44.2928 80.3526C48.8739 80.953 53.4888 81.2474 58.1078 81.2339C58.1842 81.2327 58.2569 81.2006 58.3101 81.1449C58.3632 81.0891 58.3924 81.0142 58.3911 80.9366C58.3899 80.8591 58.3583 80.7852 58.3034 80.7312C58.2485 80.6773 58.1747 80.6477 58.0983 80.649V80.649Z" fill="white"/>
<path d="M38.1167 77.8261C38.1963 78.5054 38.8881 78.8479 39.4434 79.0807C40.9824 79.7272 42.7185 79.9466 44.356 80.166C47.9685 80.6489 51.6283 80.8683 55.2692 80.9857C58.3472 81.0838 61.4498 81.0703 64.5089 80.674C67.5334 80.2569 70.4919 79.4439 73.3107 78.2552C73.3521 78.2427 73.3901 78.2208 73.4221 78.1913C73.454 78.1618 73.479 78.1254 73.4952 78.0847C73.5114 78.0441 73.5184 78.0002 73.5156 77.9565C73.5129 77.9127 73.5005 77.8701 73.4794 77.8319C73.0767 77.1237 72.496 76.5368 71.7968 76.1311C71.0975 75.7255 70.3046 75.5155 69.4992 75.5229L69.7835 75.8115C69.7593 75.3668 69.5889 74.9431 69.2996 74.6082C69.0103 74.2734 68.6188 74.0466 68.1877 73.9643L68.3563 74.3876C70.3332 70.874 72.617 66.9352 72.2304 62.7366L71.9461 63.0252C72.6473 62.9598 73.7352 63.0848 74.338 62.7058C75.6078 61.9111 75.6647 59.9407 75.0866 58.7439C75.0543 58.6897 75.0058 58.6476 74.9481 58.6237C74.8904 58.5997 74.8266 58.5953 74.7663 58.6111C62.1208 61.0009 49.138 60.8702 36.5417 58.2262C36.4813 58.2102 36.4175 58.2144 36.3597 58.2384C36.3019 58.2623 36.2534 58.3047 36.2214 58.359C35.5883 59.706 35.8195 61.5782 37.1482 62.4441C37.4249 62.625 37.7566 62.7212 38.0371 62.8963C38.1318 62.9559 38.3024 63.1041 38.1299 62.8732C38.2929 63.0925 38.3195 63.6217 38.3991 63.8776C39.1327 66.4473 40.1567 68.9222 41.4505 71.2531C41.7866 71.8534 42.1385 72.4429 42.5062 73.0214C42.6427 73.2369 43.0255 73.6198 43.0748 73.8796C43.0653 73.5602 42.9952 73.6756 42.8644 74.2298L42.3565 74.7474C41.9452 75.0053 41.4202 74.9918 40.9653 75.1226C40.5098 75.2499 40.0763 75.4479 39.6803 75.7095C38.9885 76.1732 38.2095 76.9449 38.1242 77.8261C38.0882 78.1956 38.6568 78.1917 38.6928 77.8261C38.8217 76.4792 40.6753 75.7518 41.7595 75.5479C42.4778 75.4132 43.0748 75.0745 43.4216 74.3934C43.8443 73.5621 43.27 73.1753 42.8151 72.448C42.1497 71.3809 41.5429 70.2773 40.9975 69.1422C40.4118 67.9239 39.9003 66.6702 39.4661 65.3881C39.2614 64.7865 39.0719 64.1791 38.8975 63.5659C38.8141 63.2715 38.8085 62.7962 38.5905 62.5576C38.3005 62.244 37.7357 62.1882 37.3945 61.9361C36.3995 61.1953 36.2062 59.731 36.7084 58.665L36.3862 58.7977C49.0827 61.4618 62.1685 61.5925 74.9141 59.1826L74.5919 59.0498C74.7988 59.4509 74.8998 59.8996 74.8852 60.3521C74.8705 60.8046 74.7408 61.2456 74.5085 61.6321C74.3739 61.8811 74.1915 62.1003 73.9722 62.2767C74.1162 62.1882 73.993 62.2536 73.8774 62.2767C73.269 62.4229 72.5658 62.3979 71.9423 62.4556C71.8001 62.4691 71.6409 62.5769 71.658 62.7443C72.037 66.8467 69.7949 70.6681 67.8674 74.097C67.8459 74.1353 67.8333 74.1781 67.8305 74.222C67.8276 74.266 67.8347 74.3101 67.8512 74.3508C67.8676 74.3916 67.893 74.4281 67.9253 74.4575C67.9577 74.4868 67.9962 74.5083 68.0379 74.5204C68.348 74.5715 68.6324 74.7263 68.846 74.9602C69.0595 75.1941 69.1901 75.4937 69.2168 75.8115C69.2178 75.8877 69.2481 75.9606 69.3012 76.0145C69.3543 76.0684 69.426 76.0991 69.5011 76.1001C70.2076 76.0903 70.9038 76.2727 71.5174 76.6283C72.1309 76.9839 72.6396 77.4998 72.9904 78.1225L73.161 77.6972C68.1858 79.7407 63.1954 80.4719 57.8525 80.4546C54.2173 80.4411 50.5689 80.2314 46.9507 79.8773C44.8564 79.6849 42.7166 79.4521 40.681 78.8844C40.2034 78.7517 38.7516 78.3938 38.6853 77.8204C38.6417 77.4605 38.0731 77.4567 38.1167 77.8261Z" fill="white"/>
<path d="M55.4353 77.0276C54.5256 77.0276 53.6139 77.0083 52.7061 76.9679C49.518 76.8264 46.3451 76.4405 43.2144 75.8134L43.2523 75.621C51.3115 77.2388 59.6047 77.2388 67.6639 75.621L67.7018 75.8134C63.6613 76.6202 59.5532 77.0269 55.4353 77.0276V77.0276Z" fill="white"/>
<path d="M55.4356 76.7389C51.3587 76.7283 47.2921 76.3243 43.2905 75.5324L43.48 75.8884L43.516 75.696L43.1673 75.8884C51.2792 77.4884 59.6186 77.4884 67.7305 75.8884L67.3818 75.696L67.4178 75.8884L67.6168 75.5324C63.5999 76.3243 59.5181 76.7283 55.4261 76.7389C55.3507 76.7389 55.2784 76.7693 55.2251 76.8234C55.1718 76.8776 55.1418 76.951 55.1418 77.0275C55.1418 77.1041 55.1718 77.1775 55.2251 77.2316C55.2784 77.2857 55.3507 77.3162 55.4261 77.3162C59.5722 77.3035 63.7079 76.8932 67.7779 76.0904C67.8483 76.0669 67.9072 76.0169 67.9424 75.9507C67.9777 75.8845 67.9866 75.8071 67.9674 75.7344L67.9314 75.542C67.9098 75.469 67.8613 75.4073 67.796 75.3697C67.7307 75.332 67.6536 75.3214 67.5808 75.34C59.5691 76.9207 51.3325 76.9207 43.3208 75.34C43.248 75.3214 43.1709 75.332 43.1056 75.3697C43.0403 75.4073 42.9918 75.469 42.9702 75.542L42.9341 75.7344C42.9144 75.8071 42.9232 75.8848 42.9585 75.9511C42.9938 76.0174 43.053 76.0673 43.1237 76.0904C47.1753 76.8924 51.2926 77.3028 55.4205 77.3162C55.4959 77.3182 55.569 77.2897 55.6237 77.2371C55.6784 77.1844 55.7103 77.1118 55.7123 77.0352C55.7143 76.9587 55.6863 76.8844 55.6344 76.8289C55.5825 76.7733 55.511 76.7409 55.4356 76.7389Z" fill="white"/>
<path d="M55.8928 64.1162C50.4541 64.1158 45.0204 63.781 39.6216 63.1137L39.6443 62.9213C47.6231 63.9104 55.6734 64.168 63.6977 63.6909C66.4687 63.5255 69.2718 63.2657 72.0371 62.9213L72.0599 63.1137C69.2965 63.4581 66.4895 63.716 63.7205 63.8834C61.1188 64.0399 58.5096 64.1175 55.8928 64.1162Z" fill="white"/>
<path d="M55.8918 63.8275C50.4533 63.8198 45.02 63.4851 39.6205 62.825L39.9048 63.1137L39.9276 62.9212L39.6433 63.2099C50.3998 64.5308 61.2738 64.5308 72.0303 63.2099L71.746 62.9212L71.7688 63.1137L72.0531 62.825C66.6904 63.4851 61.2937 63.8198 55.8918 63.8275C55.8164 63.8275 55.7441 63.8579 55.6907 63.9121C55.6374 63.9662 55.6075 64.0396 55.6075 64.1162C55.6075 64.1927 55.6374 64.2661 55.6907 64.3203C55.7441 64.3744 55.8164 64.4048 55.8918 64.4048C61.2937 64.3971 66.6904 64.0623 72.0531 63.4023C72.1914 63.385 72.3582 63.283 72.3374 63.1137L72.3146 62.9212C72.2976 62.7827 72.1971 62.6134 72.0303 62.6326C61.2738 63.9536 50.3998 63.9536 39.6433 62.6326C39.4784 62.6134 39.376 62.7827 39.359 62.9212L39.3362 63.1137C39.3154 63.2811 39.4841 63.385 39.6205 63.4023C45.02 64.0623 50.4533 64.3971 55.8918 64.4048C55.9672 64.4048 56.0395 64.3744 56.0928 64.3203C56.1461 64.2661 56.1761 64.1927 56.1761 64.1162C56.1761 64.0396 56.1461 63.9662 56.0928 63.9121C56.0395 63.8579 55.9672 63.8275 55.8918 63.8275V63.8275Z" fill="white"/>
<path d="M74.4854 58.4957C72.8061 58.1108 71.0871 57.7933 69.368 57.5336C66.2919 57.0698 61.7678 56.812 55.9246 56.7639C45.7846 56.685 41.4292 57.3027 38.5066 57.9184C37.938 58.0377 37.3695 58.1686 36.8009 58.3032L36.7554 58.1108C37.324 57.9761 37.8926 57.8472 38.4612 57.726C41.3932 57.1102 45.76 56.4906 55.917 56.5715C61.7716 56.6176 66.3033 56.8774 69.387 57.3411C71.1022 57.599 72.827 57.9184 74.5043 58.3032L74.4854 58.4957Z" fill="white"/>
<path d="M74.5609 58.2147C68.8864 56.9505 63.189 56.5772 57.3951 56.4829C52.2967 56.4098 47.1452 56.404 42.0753 57.0313C40.2792 57.2597 38.4968 57.5879 36.7362 58.0146L37.0849 58.207L37.0413 58.0146L36.8423 58.3706C40.2368 57.5903 43.6942 57.126 47.1718 56.9832C53.0996 56.6846 59.0396 56.7392 64.9612 57.1468C68.1544 57.3817 71.3262 57.855 74.451 58.563L74.2615 58.207L74.2217 58.3994C74.1421 58.7612 74.6898 58.9151 74.7694 58.5534L74.8092 58.3609C74.8288 58.2885 74.8201 58.2111 74.7847 58.1451C74.7494 58.0791 74.6902 58.0296 74.6197 58.0069C68.9337 56.7388 63.2251 56.3636 57.4159 56.2751C52.3081 56.202 47.1433 56.1962 42.0639 56.8254C40.2572 57.0623 38.4648 57.3995 36.6945 57.8356C36.6224 57.8568 36.5614 57.9056 36.5242 57.9717C36.487 58.0378 36.4767 58.116 36.4955 58.1897L36.5391 58.3821C36.5618 58.4535 36.6107 58.5132 36.6756 58.549C36.7405 58.5848 36.8164 58.594 36.8878 58.5745C40.2728 57.7964 43.7209 57.3339 47.1888 57.1929C53.1053 56.8956 59.0338 56.9496 64.9441 57.3546C68.1297 57.5903 71.294 58.0636 74.4112 58.7708C74.7656 58.8516 74.9191 58.3032 74.5609 58.2147Z" fill="white"/>
<path d="M56.9747 60.1523L56.7852 60.1099C56.8745 59.6643 57.0786 59.2507 57.3765 58.9112C58.1744 58.0183 59.63 57.7816 61.0799 58.3089C61.9994 58.563 62.8124 59.1142 63.396 59.879L63.2482 59.9983C63.0327 59.7168 62.7831 59.464 62.5052 59.246C62.065 58.8978 61.5613 58.6414 61.0231 58.4917C59.6376 57.9895 58.2635 58.2069 57.5167 59.042C57.2426 59.357 57.0556 59.7401 56.9747 60.1523Z" fill="white"/>
<path d="M57.0487 59.8733L56.8592 59.8329L57.0487 60.187C57.8447 57.1968 61.7358 58.3109 63.1838 60.0831V59.6751L63.0341 59.7944H63.4378C61.7946 57.7817 57.5453 56.8389 56.6848 60.0754C56.6672 60.1483 56.6783 60.2253 56.7156 60.2901C56.753 60.3548 56.8138 60.4022 56.8851 60.4223C56.9563 60.4423 57.0325 60.4334 57.0974 60.3973C57.1622 60.3613 57.2107 60.301 57.2325 60.2293C57.9907 57.4123 61.6903 58.5552 63.0341 60.2024C63.0886 60.2547 63.1609 60.2839 63.236 60.2839C63.311 60.2839 63.3833 60.2547 63.4378 60.2024L63.5875 60.0831C63.639 60.028 63.6677 59.955 63.6677 59.8791C63.6677 59.8032 63.639 59.7302 63.5875 59.6751C61.8514 57.5335 57.4202 56.6291 56.5142 60.035C56.4945 60.1077 56.5032 60.1853 56.5386 60.2516C56.5739 60.3179 56.6331 60.3678 56.7038 60.3909L56.8933 60.4313C57.2534 60.5102 57.405 59.9541 57.0487 59.8733Z" fill="white"/>
<path d="M57.733 54.3586H57.5435V58.3995H57.733V54.3586Z" fill="white"/>
<path d="M57.7326 58.1108H57.5431L57.8274 58.3994V54.3586L57.5431 54.6472H57.7326L57.4483 54.3586V58.3994C57.4483 58.4759 57.4783 58.5494 57.5316 58.6035C57.5849 58.6576 57.6572 58.688 57.7326 58.688C57.808 58.688 57.8803 58.6576 57.9336 58.6035C57.987 58.5494 58.0169 58.4759 58.0169 58.3994V54.3586C58.0159 54.2823 57.9857 54.2095 57.9326 54.1556C57.8795 54.1017 57.8077 54.0709 57.7326 54.0699H57.5431C57.468 54.0709 57.3962 54.1017 57.3431 54.1556C57.29 54.2095 57.2598 54.2823 57.2588 54.3586V58.3994C57.2598 58.4756 57.29 58.5485 57.3431 58.6024C57.3962 58.6563 57.468 58.687 57.5431 58.688H57.7326C57.808 58.688 57.8803 58.6576 57.9336 58.6035C57.987 58.5494 58.0169 58.4759 58.0169 58.3994C58.0169 58.3229 57.987 58.2494 57.9336 58.1953C57.8803 58.1412 57.808 58.1108 57.7326 58.1108Z" fill="white"/>
<path d="M53.7525 54.3586H53.563V59.554H53.7525V54.3586Z" fill="white"/>
<path d="M53.7526 59.2653H53.5631L53.8474 59.5539V54.3586L53.5631 54.6472H53.7526L53.4683 54.3586V59.5539C53.4683 59.6305 53.4983 59.7039 53.5516 59.758C53.6049 59.8121 53.6772 59.8425 53.7526 59.8425C53.828 59.8425 53.9004 59.8121 53.9537 59.758C54.007 59.7039 54.0369 59.6305 54.0369 59.5539V54.3586C54.036 54.2823 54.0057 54.2095 53.9526 54.1556C53.8995 54.1017 53.8277 54.0709 53.7526 54.0699H53.5631C53.488 54.0709 53.4163 54.1017 53.3632 54.1556C53.3101 54.2095 53.2798 54.2823 53.2788 54.3586V59.5539C53.2798 59.6302 53.3101 59.703 53.3632 59.7569C53.4163 59.8108 53.488 59.8415 53.5631 59.8425H53.7526C53.828 59.8425 53.9004 59.8121 53.9537 59.758C54.007 59.7039 54.0369 59.6305 54.0369 59.5539C54.0369 59.4774 54.007 59.4039 53.9537 59.3498C53.9004 59.2957 53.828 59.2653 53.7526 59.2653Z" fill="white"/>
<path d="M56.4707 60.035C54.9518 59.5263 53.312 59.5263 51.7931 60.035L51.7324 59.8426C53.2912 59.3235 54.9726 59.3235 56.5314 59.8426L56.4707 60.035Z" fill="white"/>
<path d="M56.5464 59.7521C54.9737 59.2568 53.29 59.2568 51.7172 59.7521L52.0659 59.9541L52.0072 59.7713L51.8082 60.1254C53.321 59.6441 54.9426 59.6441 56.4555 60.1254L56.2565 59.7713L56.1977 59.9541C56.0821 60.3063 56.6317 60.4583 56.7455 60.1061L56.8042 59.9234C56.8234 59.8509 56.8144 59.7738 56.7791 59.7079C56.7438 59.642 56.685 59.5924 56.6147 59.5693C55.0025 59.0606 53.2763 59.0606 51.6641 59.5693C51.5936 59.592 51.5344 59.6415 51.4991 59.7075C51.4638 59.7736 51.455 59.8509 51.4746 59.9234L51.5334 60.1061C51.5542 60.1797 51.6025 60.242 51.6681 60.2798C51.7336 60.3176 51.8111 60.3278 51.884 60.3082C53.3576 59.8415 54.9363 59.8415 56.41 60.3082C56.7473 60.4198 56.8971 59.8598 56.5464 59.7521Z" fill="white"/>
<path d="M44.6365 59.1306L44.4849 59.0152C45.9765 56.9967 47.8054 55.7287 49.4999 55.5362C50.3546 55.44 51.0919 55.6363 51.634 56.1135C52.013 56.4348 52.6574 57.2507 52.8053 59.0729L52.6157 59.0883C52.4755 57.3354 51.8576 56.5638 51.5127 56.2597C51.0104 55.8268 50.3205 55.6459 49.5207 55.7364C47.9021 55.9115 46.075 57.1834 44.6365 59.1306Z" fill="white"/>
<path d="M44.7795 58.8804L44.6279 58.7631L44.7303 59.1594C45.8674 57.6643 47.4273 56.15 49.3416 55.846C51.5003 55.5035 52.3324 57.1929 52.52 59.0632L52.8043 58.7746L52.6148 58.79L52.8991 59.0786C52.7247 57.3468 52.0708 55.5323 50.0978 55.4226C47.7514 55.2879 45.712 57.2468 44.3891 58.9843C44.1674 59.2787 44.6601 59.5616 44.8819 59.2768C45.9812 57.8317 47.5107 56.3424 49.3624 56.0403C51.4018 55.7055 52.1523 57.3238 52.3305 59.0805C52.3314 59.1568 52.3617 59.2296 52.4148 59.2835C52.4679 59.3374 52.5397 59.3682 52.6148 59.3692L52.8043 59.3538C52.9445 59.3422 53.1056 59.2306 53.0886 59.0651C52.8991 57.2391 52.1845 55.3553 50.1167 55.2302C47.6907 55.0821 45.6059 57.0698 44.2413 58.8689C44.1408 59.0017 44.2413 59.1806 44.3436 59.2633L44.4952 59.3807C44.7852 59.6039 45.0676 59.1017 44.7795 58.8804Z" fill="white"/>
<path d="M59.74 54.4548H52.1114L49.7725 53.6601L49.583 49.3076L51.6679 47.7682V46.2173L53.5632 45.2552V44.0468L52.6155 43.8544V41.3703H58.491V43.8717H57.7329V45.0262H60.8355L67.4691 41.1778C68.8413 40.7372 70.2457 40.3485 71.6388 40.0233C74.9438 39.2552 78.3127 38.8043 81.701 38.6764H91.6589V40.589L91.5755 40.6006C89.7125 40.8238 87.7982 41.0181 85.8896 41.1778C83.9336 41.3395 82.3966 41.4318 81.0414 41.5127C78.0089 41.6935 76.1723 41.8032 73.7786 42.5209C71.7186 43.1514 69.7505 44.0573 67.9258 45.2148C65.5109 47.3083 62.5144 48.5873 59.3514 48.8746H53.6845L52.2364 49.7944V51.3761H60.519L61.9025 51.9784V53.6486L59.74 54.4548ZM52.1587 54.2624H59.7078L61.713 53.5216V52.1131L60.4621 51.5685H52.0469V49.6867L53.6314 48.6822H59.3439C62.4693 48.3939 65.4285 47.1241 67.8102 45.0493C69.6528 43.8805 71.6408 42.9668 73.7217 42.3324C76.1344 41.6089 77.9767 41.4992 81.0262 41.3164C82.3814 41.2356 83.9166 41.1451 85.8707 40.9816C87.7508 40.8257 89.6347 40.6352 91.4694 40.4159V38.8688H81.7085C78.3329 38.9979 74.9767 39.4488 71.6842 40.2157C70.2931 40.539 68.8962 40.9258 67.5316 41.3703L60.8848 45.2187H57.5433V43.6793H58.3014V41.5627H52.805V43.6966L53.7527 43.889V45.3745L51.8574 46.3366V47.8644L49.7725 49.4038L49.9621 53.5177L52.1587 54.2624Z" fill="white"/>
<path d="M59.7399 54.1663H54.2018C53.5384 54.1663 52.7841 54.2683 52.1264 54.1663C51.5976 54.0855 50.5362 53.6179 49.852 53.387L50.0624 53.666L49.9221 50.5584C49.9276 50.1523 49.9093 49.7462 49.8672 49.3423C49.9051 49.5636 49.6473 49.5867 50.0245 49.3423C50.2823 49.1769 50.523 48.9748 50.7694 48.792C51.0669 48.5727 51.5919 48.3244 51.8137 48.0223C52.0354 47.7202 51.9539 47.3008 51.9539 46.9082C51.9539 46.6927 51.9331 46.4637 51.9539 46.2502C51.9122 46.6716 51.7511 46.406 51.9691 46.3925C52.1027 46.3444 52.23 46.2797 52.3481 46.2001L53.7033 45.5132C53.7461 45.4875 53.7815 45.4508 53.8061 45.407C53.8307 45.3631 53.8436 45.3135 53.8435 45.263V44.0546C53.8431 43.9915 53.8226 43.9302 53.785 43.88C53.7474 43.8297 53.6948 43.7931 53.6351 43.7756L52.6874 43.5832L52.8959 43.8622V41.3704L52.6116 41.659H58.4871L58.2028 41.3704V43.8718L58.4871 43.5832H57.7289C57.6538 43.5842 57.5821 43.6149 57.529 43.6689C57.4759 43.7228 57.4456 43.7956 57.4446 43.8718V45.0264C57.4456 45.1026 57.4759 45.1754 57.529 45.2294C57.5821 45.2833 57.6538 45.314 57.7289 45.315C58.6557 45.315 59.5826 45.3285 60.5094 45.315C61.0192 45.315 61.3035 45.086 61.7489 44.8263C63.5949 43.7564 65.4163 42.623 67.2927 41.6128C68.7028 40.8528 70.5147 40.5738 72.067 40.2236C74.5248 39.6677 77.0183 39.2896 79.5288 39.0921C81.5701 38.9324 83.6056 38.9651 85.6507 38.9651H91.6588L91.3745 38.6765V40.5892L91.6588 40.3005C87.8909 40.7547 84.1155 41.0337 80.3305 41.2626C76.7749 41.482 73.4468 42.0323 70.2001 43.6102C69.3377 44.0021 68.5085 44.4655 67.721 44.9956C66.8738 45.5998 66.1176 46.2521 65.2041 46.762C63.4566 47.7376 61.3566 48.4938 59.3437 48.5823C57.6228 48.6573 55.8829 48.5823 54.1582 48.5823C53.4247 48.5823 53.0077 48.9517 52.3804 49.352C51.6981 49.7926 51.952 50.6008 51.952 51.3647C51.953 51.4409 51.9833 51.5137 52.0364 51.5677C52.0895 51.6216 52.1612 51.6523 52.2363 51.6533H58.5363H60.0071C60.1398 51.6533 60.2762 51.6418 60.4089 51.6533C60.6553 51.6745 60.2876 51.6013 60.479 51.6533C60.7956 51.7457 61.0817 51.9766 61.402 52.0535C61.5035 52.0877 61.6018 52.1309 61.6958 52.1825C61.8171 52.2421 61.6465 51.8553 61.62 52.0535C61.5518 52.5596 61.62 53.1215 61.62 53.6314L61.8285 53.3524L59.6659 54.1509C59.3248 54.2779 59.4764 54.8359 59.8176 54.7089L61.9801 53.9104C62.0394 53.8921 62.0915 53.8553 62.1289 53.8052C62.1664 53.7551 62.1873 53.6943 62.1886 53.6314V51.9612C62.1895 51.9108 62.1769 51.8611 62.1522 51.8174C62.1275 51.7737 62.0916 51.7376 62.0484 51.713C61.4911 51.4705 60.9301 51.1222 60.3274 51.0703C59.4575 50.9972 58.5496 51.0703 57.674 51.0703H52.2344L52.5187 51.3589V50.2159C52.5187 50.1062 52.5794 49.6829 52.4581 49.9081C52.3368 50.1332 52.7594 49.783 52.875 49.7156L53.4721 49.3308C53.546 49.2827 53.9497 49.0826 53.6919 49.1384C53.9061 49.1153 54.1221 49.1153 54.3363 49.1384C55.9985 49.1384 57.6816 49.2173 59.3418 49.1384C60.951 49.0614 62.598 48.5727 64.0707 47.9377C65.8314 47.168 67.179 45.9269 68.8089 44.9783C72.0992 43.0656 75.5809 42.142 79.3393 41.8822C83.4521 41.5974 87.5574 41.3454 91.6588 40.8528C91.7338 40.8513 91.8052 40.8204 91.8582 40.7666C91.9112 40.7128 91.9417 40.6402 91.9431 40.5642V38.6765C91.9421 38.6003 91.9119 38.5274 91.8588 38.4735C91.8057 38.4196 91.7339 38.3889 91.6588 38.3879C88.1677 38.3879 84.6462 38.2436 81.1607 38.411C78.8349 38.5245 76.5186 38.788 74.2257 39.1999C73.0999 39.4026 71.9798 39.6412 70.8653 39.9157C69.7168 40.2005 68.4431 40.4391 67.3552 40.9182C65.6817 41.6571 64.0915 42.8058 62.507 43.7237L61.167 44.4934C61.0451 44.5729 60.9185 44.6448 60.788 44.7089C60.5757 44.8032 60.8543 44.7185 60.7709 44.73C59.7986 44.8763 58.7088 44.73 57.7251 44.73L58.0094 45.0187V43.8642L57.7251 44.1528H58.4833C58.5584 44.1518 58.6301 44.1211 58.6832 44.0671C58.7363 44.0132 58.7666 43.9404 58.7676 43.8642V41.3704C58.7666 41.2942 58.7363 41.2213 58.6832 41.1674C58.6301 41.1135 58.5584 41.0828 58.4833 41.0818H52.6154C52.5403 41.0828 52.4685 41.1135 52.4154 41.1674C52.3623 41.2213 52.3321 41.2942 52.3311 41.3704V43.8545C52.3315 43.9177 52.3521 43.9789 52.3897 44.0292C52.4272 44.0795 52.4798 44.1161 52.5396 44.1335L53.4872 44.326L53.2787 44.047C53.2598 44.3353 53.2598 44.6245 53.2787 44.9128C53.3242 45.24 53.1366 45.2149 53.4 45.0167C53.3246 45.0709 53.2416 45.1131 53.1537 45.1418C52.604 45.2938 52.0392 45.7075 51.5237 45.9692C51.4808 45.9944 51.4452 46.0306 51.4206 46.0741C51.396 46.1177 51.3832 46.1672 51.3834 46.2174C51.3834 46.6119 51.3493 47.0256 51.3834 47.4181C51.41 47.7241 51.2887 47.7568 51.5104 47.5278C51.4029 47.6217 51.2882 47.7066 51.1674 47.7818L49.9146 48.7074C49.7421 48.8344 49.4142 48.9883 49.3213 49.198C49.0977 49.6945 49.3611 50.7643 49.3858 51.2916L49.4919 53.6602C49.4936 53.7228 49.5147 53.7832 49.5521 53.8329C49.5895 53.8827 49.6414 53.9192 49.7004 53.9373C50.4585 54.1952 51.2811 54.6069 52.0733 54.7339C52.6969 54.8321 53.4 54.7339 54.0331 54.7339H59.7399C59.8052 54.7217 59.8642 54.6866 59.9067 54.6347C59.9492 54.5829 59.9725 54.5176 59.9725 54.4501C59.9725 54.3827 59.9492 54.3174 59.9067 54.2655C59.8642 54.2137 59.8052 54.1786 59.7399 54.1663V54.1663Z" fill="white"/>
<path d="M52.157 54.5511H57.5795C58.2561 54.5511 59.0104 54.6473 59.6814 54.5511C60.3864 54.4491 61.118 54.047 61.789 53.8007C61.8482 53.7824 61.9003 53.7456 61.9378 53.6955C61.9752 53.6454 61.9961 53.5845 61.9974 53.5216V52.1131C61.9981 52.0625 61.9854 52.0127 61.9607 51.9687C61.9361 51.9248 61.9003 51.8883 61.8572 51.863C61.3113 51.6263 60.7977 51.3127 60.2045 51.2857C59.2966 51.2376 58.3736 51.2857 57.4639 51.2857H52.0471L52.3314 51.5744V50.4468C52.3314 50.2274 52.3314 50.0061 52.3314 49.7849C52.3314 49.8387 52.066 49.9465 52.411 49.8022C52.8355 49.6251 53.2089 49.2692 53.6088 49.0325C53.7642 48.944 53.732 48.9517 53.6619 48.9671C53.7702 48.9555 53.8795 48.9555 53.9879 48.9671C55.7145 49.0036 57.4639 49.0209 59.1886 48.9671C62.3519 48.867 65.2896 47.3661 67.7554 45.4689C70.8258 43.106 74.933 42.0534 78.7084 41.7571C82.9691 41.4223 87.2222 41.2068 91.4696 40.7045C91.5443 40.7026 91.6155 40.6716 91.6685 40.6179C91.7214 40.5641 91.7519 40.4919 91.7538 40.4159V38.8689C91.7529 38.7926 91.7226 38.7198 91.6695 38.6659C91.6164 38.612 91.5446 38.5812 91.4696 38.5802C87.8685 38.5802 84.2238 38.4205 80.6227 38.6322C78.3082 38.7686 76.0045 39.054 73.7256 39.4865C72.5493 39.711 71.3799 39.9753 70.2174 40.2793C69.2944 40.5218 68.2558 40.7219 67.3839 41.1163C65.6781 41.886 64.0463 43.0521 62.4163 44.0026C61.9633 44.2662 61.499 44.5145 61.0555 44.7935C60.9711 44.8528 60.8817 44.9044 60.7882 44.9474C60.7522 44.9628 60.9778 44.9359 60.6878 44.9359H57.5435L57.8278 45.2245V43.6851L57.5435 43.9738H58.3016C58.3767 43.9728 58.4484 43.942 58.5015 43.8881C58.5546 43.8342 58.5849 43.7614 58.5859 43.6851V41.5627C58.5849 41.4865 58.5546 41.4137 58.5015 41.3598C58.4484 41.3058 58.3767 41.2751 58.3016 41.2741H52.8052C52.7301 41.2751 52.6583 41.3058 52.6052 41.3598C52.5521 41.4137 52.5219 41.4865 52.5209 41.5627V43.6967C52.5213 43.7598 52.5419 43.8211 52.5794 43.8714C52.617 43.9217 52.6696 43.9582 52.7294 43.9757L53.677 44.1681L53.4685 43.8891V44.8166C53.4685 44.9782 53.478 45.1437 53.4685 45.3053C53.478 45.161 53.713 45.1879 53.4534 45.2053C52.9416 45.236 52.1835 45.8499 51.7135 46.0865C51.6707 46.1123 51.6353 46.1489 51.6107 46.1927C51.5861 46.2366 51.5732 46.2862 51.5732 46.3367C51.5505 46.7398 51.5505 47.1439 51.5732 47.547C51.6149 47.9011 51.5732 47.7279 51.6604 47.6548C51.5486 47.751 51.4197 47.8337 51.3003 47.9203L50.1081 48.8016C49.9414 48.9247 49.6097 49.0883 49.5149 49.2923C49.3008 49.7483 49.5528 50.7912 49.5737 51.2742L49.6741 53.5178C49.6759 53.5808 49.6971 53.6417 49.7349 53.6918C49.7727 53.7419 49.825 53.7786 49.8845 53.7968L52.0812 54.5415C52.4299 54.6588 52.5796 54.1008 52.2328 53.9834L50.0342 53.2407L50.2427 53.5178L50.1138 50.6315C50.123 50.2221 50.1047 49.8126 50.0589 49.4058C50.1006 49.6348 49.839 49.6617 50.2162 49.425C50.4739 49.2615 50.7147 49.0575 50.9591 48.8766C51.2643 48.6515 51.7703 48.411 52.0016 48.1069C52.2328 47.8029 52.1418 47.3834 52.1418 46.9986C52.1579 46.8554 52.1579 46.7108 52.1418 46.5676C52.0717 46.2905 52.2934 46.3752 52.0205 46.5676C52.1882 46.4679 52.3623 46.3798 52.5417 46.304L53.8969 45.6151C53.9398 45.59 53.9753 45.5538 53.9999 45.5102C54.0246 45.4666 54.0374 45.4171 54.0371 45.3669V43.8814C54.0367 43.8183 54.0161 43.757 53.9786 43.7067C53.941 43.6564 53.8884 43.6198 53.8286 43.6024L52.881 43.41L53.0895 43.689V41.5627L52.8052 41.8514H58.3016L58.0173 41.5627V43.6794L58.3016 43.3907H57.5435C57.4684 43.3917 57.3966 43.4225 57.3435 43.4764C57.2904 43.5303 57.2601 43.6031 57.2592 43.6794V45.2187C57.2601 45.295 57.2904 45.3678 57.3435 45.4217C57.3966 45.4756 57.4684 45.5064 57.5435 45.5074C58.8872 45.5074 60.4073 45.8287 61.5994 45.1379L67.2418 41.8668C68.5211 41.124 70.1624 40.872 71.5858 40.5352C74.0258 39.9579 76.5028 39.556 78.9984 39.3326C81.1609 39.1402 83.3045 39.1594 85.4709 39.1594H91.4696L91.1853 38.8708V40.4217L91.4696 40.1331C87.4894 40.6045 83.4903 40.8604 79.4874 41.1298C75.9052 41.3703 72.5505 42.14 69.3437 43.8352C67.4787 44.8204 65.9492 46.2751 64.0197 47.1525C62.5224 47.8318 60.7977 48.3532 59.1564 48.3956C57.3918 48.4418 55.5742 48.2282 53.8192 48.3956C53.2146 48.4533 52.4223 48.9728 51.9807 49.3904C51.5088 49.8291 51.7628 50.9509 51.7628 51.5705C51.7637 51.6467 51.794 51.7196 51.8471 51.7735C51.9002 51.8274 51.972 51.8581 52.0471 51.8591H58.0817C58.8399 51.8591 59.6871 51.7514 60.4395 51.8591C60.2253 51.8283 60.5741 51.9284 60.6935 51.9842C60.9721 52.1112 61.2621 52.2132 61.5407 52.3517C61.3511 52.2594 61.5217 52.0458 61.4289 52.3055C61.4089 52.444 61.4089 52.5847 61.4289 52.7231V53.5236L61.6373 53.2446C61.0441 53.4639 60.104 53.9103 59.651 53.9758C58.9346 54.0797 58.1348 53.9758 57.4051 53.9758H52.157C52.0858 53.9817 52.0195 54.0145 51.9711 54.0678C51.9227 54.1211 51.8959 54.1909 51.8959 54.2634C51.8959 54.3359 51.9227 54.4057 51.9711 54.459C52.0195 54.5123 52.0858 54.5452 52.157 54.5511V54.5511Z" fill="white"/>
<path d="M54.1314 48.9708H53.9419V51.2799H54.1314V48.9708Z" fill="white"/>
<path d="M54.1315 50.9913H53.942L54.2263 51.2799V48.9709L53.942 49.2595H54.1315L53.8472 48.9709V51.2799C53.8472 51.3565 53.8772 51.4299 53.9305 51.484C53.9838 51.5382 54.0561 51.5686 54.1315 51.5686C54.2069 51.5686 54.2793 51.5382 54.3326 51.484C54.3859 51.4299 54.4158 51.3565 54.4158 51.2799V48.9709C54.4149 48.8946 54.3846 48.8218 54.3315 48.7679C54.2784 48.714 54.2066 48.6832 54.1315 48.6823H53.942C53.8669 48.6832 53.7952 48.714 53.7421 48.7679C53.689 48.8218 53.6587 48.8946 53.6577 48.9709V51.2799C53.6587 51.3562 53.689 51.429 53.7421 51.4829C53.7952 51.5368 53.8669 51.5676 53.942 51.5686H54.1315C54.2069 51.5686 54.2793 51.5382 54.3326 51.484C54.3859 51.4299 54.4158 51.3565 54.4158 51.2799C54.4158 51.2034 54.3859 51.13 54.3326 51.0758C54.2793 51.0217 54.2069 50.9913 54.1315 50.9913Z" fill="white"/>
<path d="M57.3536 48.9708H57.1641V51.0874H57.3536V48.9708Z" fill="white"/>
<path d="M57.3537 50.7989H57.1642L57.4485 51.0875V48.9709L57.1642 49.2595H57.3537L57.0694 48.9709V51.0875C57.0694 51.164 57.0994 51.2375 57.1527 51.2916C57.206 51.3457 57.2783 51.3761 57.3537 51.3761C57.4291 51.3761 57.5014 51.3457 57.5547 51.2916C57.6081 51.2375 57.638 51.164 57.638 51.0875V48.9709C57.637 48.8946 57.6068 48.8218 57.5537 48.7679C57.5006 48.714 57.4288 48.6832 57.3537 48.6823H57.1642C57.0891 48.6832 57.0173 48.714 56.9642 48.7679C56.9111 48.8218 56.8809 48.8946 56.8799 48.9709V51.0875C56.8809 51.1637 56.9111 51.2366 56.9642 51.2905C57.0173 51.3444 57.0891 51.3751 57.1642 51.3761H57.3537C57.4291 51.3761 57.5014 51.3457 57.5547 51.2916C57.6081 51.2375 57.638 51.164 57.638 51.0875C57.638 51.0109 57.6081 50.9375 57.5547 50.8834C57.5014 50.8293 57.4291 50.7989 57.3537 50.7989Z" fill="white"/>
<path d="M57.8539 47.1428H52.5205V46.9504H57.8008L58.7485 46.3732H60.1017V46.5656H58.8016L57.8539 47.1428Z" fill="white"/>
<path d="M57.854 46.8543H52.5206L52.8049 47.1429V46.9505L52.5206 47.2391H56.9746C57.4636 47.2391 57.7669 47.2776 58.1895 47.0467C58.6122 46.8158 58.7335 46.6753 58.995 46.6618C59.3608 46.6368 59.7361 46.6618 60.1019 46.6618L59.8176 46.3732V46.5656L60.1019 46.277C59.6944 46.277 59.1978 46.1904 58.8017 46.277C58.4056 46.3636 58.0436 46.6888 57.71 46.8927C57.6505 46.9343 57.6087 46.9972 57.593 47.0688C57.5773 47.1404 57.5888 47.2154 57.6253 47.2787C57.6617 47.342 57.7204 47.389 57.7896 47.4102C57.8587 47.4314 57.9332 47.4253 57.9981 47.393L58.4719 47.1044C58.5842 47.0236 58.702 46.9509 58.8244 46.887C59.014 46.81 58.7789 46.8754 58.8737 46.8543C59.2528 46.7735 59.719 46.8543 60.1019 46.8543C60.177 46.8533 60.2487 46.8225 60.3018 46.7686C60.3549 46.7147 60.3852 46.6419 60.3862 46.5656V46.3732C60.3852 46.297 60.3549 46.2241 60.3018 46.1702C60.2487 46.1163 60.177 46.0856 60.1019 46.0846C59.4878 46.0846 58.904 45.9826 58.3601 46.277C57.6399 46.6618 57.8389 46.6618 56.9746 46.6618H52.5206C52.4455 46.6628 52.3738 46.6936 52.3207 46.7475C52.2676 46.8014 52.2373 46.8742 52.2363 46.9505V47.1429C52.2373 47.2191 52.2676 47.292 52.3207 47.3459C52.3738 47.3998 52.4455 47.4305 52.5206 47.4315H57.854C57.9294 47.4315 58.0017 47.4011 58.0551 47.347C58.1084 47.2929 58.1383 47.2194 58.1383 47.1429C58.1383 47.0663 58.1084 46.9929 58.0551 46.9388C58.0017 46.8847 57.9294 46.8543 57.854 46.8543V46.8543Z" fill="white"/>
<path d="M83.8883 38.3993L83.1301 31.8801C80.1697 27.3813 79.5423 22.567 81.6385 20.4253C82.2431 19.8057 83.0903 19.4074 84.1536 19.2439C85.2219 19.033 86.3132 18.9683 87.3984 19.0514C89.3998 19.2054 90.9009 19.6287 91.6211 20.2271C93.5903 21.8839 92.7886 27.0523 89.7599 32.2591V38.3877H89.5704V32.2033L89.5837 32.1822C92.5763 27.0484 93.4008 21.9724 91.4998 20.3753C90.8099 19.798 89.3467 19.392 87.3832 19.2419C86.3137 19.1619 85.2385 19.2266 84.1858 19.4344C83.1605 19.5941 82.3493 19.9731 81.7712 20.5619C79.7356 22.6439 80.3781 27.3659 83.3007 31.7935L83.3121 31.8127V31.8358L84.0702 38.3781L83.8883 38.3993Z" fill="white"/>
<path d="M84.1727 38.3993L83.4847 32.4535C83.4807 32.2346 83.4546 32.0167 83.407 31.8032C83.261 31.3683 82.8706 30.9334 82.6488 30.5293C82.2787 29.872 81.9501 29.1914 81.6652 28.4916C80.9241 26.654 80.3858 24.4854 80.8654 22.5074C81.4624 20.0444 83.7083 19.4152 85.9619 19.3151C87.6354 19.242 90.7001 19.2766 91.8184 20.8545C92.7982 22.2476 92.4419 24.4065 92.0799 25.9401C91.81 27.0605 91.4447 28.155 90.9882 29.2113C90.7551 29.7539 90.5011 30.2888 90.2301 30.8141C90.0008 31.2644 89.5857 31.7627 89.4814 32.2592C89.2919 33.1905 89.4814 34.3758 89.4814 35.3244V38.3878L89.7638 38.0991H89.5743L89.8586 38.3878V33.2886C89.8586 32.9654 89.7904 32.5401 89.8586 32.2207C89.7638 32.6729 90.2225 31.6434 90.2036 31.6819C90.3805 31.3587 90.5504 31.0328 90.7134 30.7044C90.9863 30.1554 91.239 29.598 91.4715 29.0323C91.9592 27.8782 92.3313 26.6772 92.5822 25.4475C92.8703 23.9524 93.0617 22.0609 92.1766 20.7198C91.263 19.3363 89.2085 19.1304 87.7283 18.988C85.7647 18.7956 83.0696 18.8379 81.5742 20.3619C78.7748 23.2155 80.9108 28.938 82.863 31.6415C83.297 32.2419 82.9654 31.6204 83.0525 32.009C83.0854 32.2001 83.1082 32.3928 83.1208 32.5863L83.3899 34.9146L83.7917 38.3781L84.076 38.0895L83.8865 38.1126C83.5283 38.1549 83.5245 38.7322 83.8865 38.6899L84.076 38.6668C84.2144 38.6514 84.3793 38.5475 84.3603 38.3781L83.6609 32.3554C83.5264 31.1836 82.6811 30.283 82.1826 29.2209C81.2729 27.2813 80.5545 24.9222 80.9942 22.7614C81.506 20.2599 83.6913 19.6114 85.9638 19.5095C87.1389 19.4584 88.3155 19.5665 89.4625 19.8308C90.2718 20.0232 91.1815 20.2791 91.6838 21.0026C92.6807 22.4458 92.2107 24.726 91.8032 26.2807C91.4825 27.4766 91.0568 28.6409 90.5314 29.7597C90.2787 30.31 90.0052 30.8513 89.7108 31.3837C89.5686 31.6415 89.3469 31.9186 89.2881 32.213C89.0986 33.1886 89.2881 34.4008 89.2881 35.3918V38.3878C89.2891 38.4643 89.3196 38.5375 89.3732 38.5914C89.4267 38.6454 89.4989 38.6759 89.5743 38.6764H89.7638C89.8389 38.6754 89.9107 38.6447 89.9638 38.5908C90.0169 38.5368 90.0472 38.464 90.0481 38.3878V35.3225C90.0481 34.3373 89.8207 32.9654 90.196 32.0764C90.666 30.9642 91.3142 29.9348 91.7634 28.8053C92.2266 27.6616 92.5727 26.4726 92.7963 25.257C93.0579 23.7562 93.2 21.8955 92.3036 20.5658C91.3559 19.1593 89.2711 18.9341 87.7548 18.7917C85.7306 18.5993 82.9862 18.6493 81.4453 20.2214C78.6459 23.0808 80.6493 28.6379 82.5124 31.4241C82.8535 31.934 82.8914 32.1476 82.9578 32.7614L83.2118 34.9511L83.6098 38.3993C83.6477 38.763 84.2163 38.7688 84.1727 38.3993Z" fill="white"/>
<path d="M88.2472 33.7697H88.0576V38.3877H88.2472V33.7697Z" fill="white"/>
<path d="M88.2473 38.0992H88.0577L88.342 38.3878V33.7697L88.0577 34.0583H88.2473L87.963 33.7697V38.3878C87.963 38.4643 87.9929 38.5378 88.0462 38.5919C88.0996 38.646 88.1719 38.6764 88.2473 38.6764C88.3227 38.6764 88.395 38.646 88.4483 38.5919C88.5016 38.5378 88.5316 38.4643 88.5316 38.3878V33.7697C88.5306 33.6935 88.5003 33.6206 88.4472 33.5667C88.3941 33.5128 88.3224 33.4821 88.2473 33.4811H88.0577C87.9826 33.4821 87.9109 33.5128 87.8578 33.5667C87.8047 33.6206 87.7744 33.6935 87.7734 33.7697V38.3878C87.7744 38.464 87.8047 38.5369 87.8578 38.5908C87.9109 38.6447 87.9826 38.6754 88.0577 38.6764H88.2473C88.3227 38.6764 88.395 38.646 88.4483 38.5919C88.5016 38.5378 88.5316 38.4643 88.5316 38.3878C88.5316 38.3112 88.5016 38.2378 88.4483 38.1837C88.395 38.1296 88.3227 38.0992 88.2473 38.0992Z" fill="white"/>
<path d="M85.0279 33.1793L84.8389 33.1935L85.2182 38.388L85.4072 38.3738L85.0279 33.1793Z" fill="white"/>
<path d="M85.4989 38.3955L85.1199 33.2001L84.8356 33.4811L85.0251 33.4657L84.7408 33.177L85.1199 38.3724L85.4042 38.0991L85.2146 38.1145C84.8526 38.1415 84.8488 38.7187 85.2146 38.6918L85.4042 38.6764C85.4793 38.6754 85.551 38.6447 85.6041 38.5908C85.6572 38.5369 85.6875 38.464 85.6885 38.3878L85.3094 33.1924C85.3084 33.1162 85.2782 33.0434 85.225 32.9894C85.1719 32.9355 85.1002 32.9048 85.0251 32.9038L84.8356 32.9192C84.7605 32.9202 84.6887 32.9509 84.6356 33.0048C84.5825 33.0588 84.5523 33.1316 84.5513 33.2078L84.9303 38.4032C84.9569 38.763 85.5255 38.7668 85.4989 38.3955Z" fill="white"/>
<path d="M61.4858 46.3539L61.3721 46.2C62.278 45.5265 63.2219 44.8876 64.1809 44.2988C65.4813 43.4986 66.8275 42.7777 68.2123 42.1399L68.2919 42.3169C66.913 42.9483 65.5725 43.6629 64.2776 44.4566C63.3242 45.0493 62.3842 45.6862 61.4858 46.3539Z" fill="white"/>
<path d="M61.7297 46.2096L61.6179 46.0537L61.5156 46.4385C63.6573 44.8635 65.9487 43.5098 68.3558 42.3977L67.9672 42.2938L68.0449 42.4689L68.1473 42.0745C65.7512 43.187 63.4711 44.5407 61.3412 46.1153C61.0474 46.3308 61.3317 46.833 61.6274 46.6137C63.758 45.0428 66.038 43.6924 68.4335 42.5825C68.4974 42.5429 68.5438 42.4797 68.5628 42.4061C68.5819 42.3326 68.5722 42.2544 68.5358 42.188L68.4581 42.0129C68.4193 41.9505 68.3587 41.9052 68.2885 41.8859C68.2183 41.8667 68.1435 41.8749 68.079 41.909C65.6714 43.0237 63.3799 44.3806 61.2389 45.9594C61.1767 45.9982 61.1315 46.0597 61.1124 46.1312C61.0934 46.2028 61.102 46.279 61.1365 46.3443L61.2483 46.5001C61.453 46.7965 61.9458 46.5097 61.7297 46.2096Z" fill="white"/>
<path d="M56.4058 41.8513H56.2163V43.3907H56.4058V41.8513Z" fill="white"/>
<path d="M56.406 43.102H56.2164L56.5007 43.3906V41.8513L56.2164 42.1399H56.406L56.1217 41.8513V43.3906C56.1217 43.4672 56.1516 43.5406 56.2049 43.5947C56.2582 43.6488 56.3306 43.6792 56.406 43.6792C56.4814 43.6792 56.5537 43.6488 56.607 43.5947C56.6603 43.5406 56.6903 43.4672 56.6903 43.3906V41.8513C56.6893 41.775 56.659 41.7022 56.6059 41.6483C56.5528 41.5943 56.481 41.5636 56.406 41.5626H56.2164C56.1413 41.5636 56.0696 41.5943 56.0165 41.6483C55.9634 41.7022 55.9331 41.775 55.9321 41.8513V43.3906C55.9331 43.4668 55.9634 43.5397 56.0165 43.5936C56.0696 43.6475 56.1413 43.6782 56.2164 43.6792H56.406C56.4814 43.6792 56.5537 43.6488 56.607 43.5947C56.6603 43.5406 56.6903 43.4672 56.6903 43.3906C56.6903 43.3141 56.6603 43.2406 56.607 43.1865C56.5537 43.1324 56.4814 43.102 56.406 43.102V43.102Z" fill="white"/>
<path d="M51.1023 49.7331L50.9131 49.7444L51.1028 53.0156L51.292 53.0043L51.1023 49.7331Z" fill="white"/>
<path d="M51.3836 53.0174L51.1941 49.7463L50.9098 50.0292L51.0993 50.0176L50.815 49.729L51.0046 53.0001L51.2888 52.723L51.0993 52.7346C50.7354 52.7557 50.7335 53.333 51.0993 53.3118L51.2888 53.3003C51.3639 53.2993 51.4357 53.2686 51.4888 53.2147C51.5419 53.1607 51.5722 53.0879 51.5731 53.0117L51.3836 49.7405C51.3826 49.6643 51.3524 49.5915 51.2993 49.5375C51.2462 49.4836 51.1744 49.4529 51.0993 49.4519L50.9098 49.4634C50.8347 49.4644 50.7629 49.4952 50.7098 49.5491C50.6567 49.603 50.6265 49.6758 50.6255 49.7521L50.815 53.0232C50.8359 53.3869 51.4045 53.3888 51.3836 53.0174Z" fill="white"/>
<path d="M56.8798 50.0292H54.6055V50.2216H56.8798V50.0292Z" fill="white"/>
<path d="M56.88 49.9329H54.6056L54.8899 50.2215V50.0291L54.6056 50.3177H56.88L56.5957 50.0291V50.2215C56.5957 50.2981 56.6256 50.3715 56.6789 50.4256C56.7322 50.4798 56.8046 50.5102 56.88 50.5102C56.9554 50.5102 57.0277 50.4798 57.081 50.4256C57.1343 50.3715 57.1643 50.2981 57.1643 50.2215V50.0291C57.1633 49.9529 57.133 49.88 57.0799 49.8261C57.0268 49.7722 56.9551 49.7415 56.88 49.7405H54.6056C54.5305 49.7415 54.4587 49.7722 54.4056 49.8261C54.3525 49.88 54.3223 49.9529 54.3213 50.0291V50.2215C54.3223 50.2978 54.3525 50.3706 54.4056 50.4245C54.4587 50.4784 54.5305 50.5092 54.6056 50.5102H56.88C56.9554 50.5102 57.0277 50.4798 57.081 50.4256C57.1343 50.3715 57.1643 50.2981 57.1643 50.2215C57.1643 50.145 57.1343 50.0716 57.081 50.0174C57.0277 49.9633 56.9554 49.9329 56.88 49.9329Z" fill="white"/>
<path d="M39.2064 113.755C38.6978 113.756 38.1921 113.678 37.7072 113.522C36.136 112.998 34.5951 111.44 34.8964 110.043C35.086 109.158 35.9066 108.696 36.1758 108.536C37.819 107.599 40.3682 108.269 41.4182 109.916C41.6651 110.307 41.8309 110.745 41.9053 111.203V111.603C41.911 111.995 41.8071 112.38 41.6058 112.714C41.1282 113.48 40.154 113.755 39.2064 113.755ZM34.9893 110.064L35.0822 110.085C34.8111 111.344 36.2762 112.843 37.7678 113.341C38.8747 113.709 40.7491 113.726 41.4485 112.61C41.6294 112.307 41.7227 111.958 41.7177 111.603V111.219C41.6448 110.792 41.4889 110.384 41.259 110.02C40.2583 108.452 37.8323 107.813 36.2686 108.706C36.0166 108.848 35.2546 109.283 35.0822 110.085L34.9893 110.064Z" fill="white"/>
<path d="M39.2064 113.466C37.6522 113.416 35.7171 112.566 35.2262 110.909C34.7619 109.354 36.534 108.442 37.7887 108.407C39.1514 108.363 40.6563 109.048 41.3121 110.303C41.6211 110.858 41.7093 111.513 41.5585 112.133C41.2628 113.189 40.1521 113.447 39.2102 113.48C38.8463 113.491 38.8444 114.068 39.2102 114.057C41.0164 114.003 42.5971 112.87 42.1251 110.861C41.6741 108.937 39.6461 107.782 37.7887 107.836C36.2724 107.88 34.3298 108.963 34.6103 110.763C34.9381 112.858 37.349 113.997 39.2102 114.057C39.5741 114.055 39.5722 113.478 39.2064 113.466Z" fill="white"/>
<path d="M34.9128 110.343L35.0056 110.362L34.799 110.008C34.3252 113.526 41.4573 115.714 41.9747 111.884C42.4788 108.157 35.9305 106.325 34.799 110.008L35.1497 109.806L35.0568 109.785C34.7005 109.706 34.547 110.262 34.9052 110.343L34.998 110.362C35.0694 110.381 35.1451 110.372 35.2099 110.336C35.2747 110.3 35.3236 110.241 35.3468 110.17C36.2508 107.228 41.4004 108.709 41.425 111.517C41.4535 114.776 34.9469 113.145 35.3468 110.17C35.366 110.097 35.3571 110.02 35.3218 109.954C35.2866 109.887 35.2277 109.837 35.1573 109.814L35.0644 109.793C34.7081 109.706 34.5545 110.257 34.9128 110.343Z" fill="white"/>
<path d="M86.6363 122.379H94.9757C95.0511 122.379 95.1234 122.349 95.1768 122.294C95.2301 122.24 95.26 122.167 95.26 122.09C95.26 122.014 95.2301 121.94 95.1768 121.886C95.1234 121.832 95.0511 121.802 94.9757 121.802H86.6363C86.5609 121.802 86.4886 121.832 86.4353 121.886C86.382 121.94 86.3521 122.014 86.3521 122.09C86.3521 122.167 86.382 122.24 86.4353 122.294C86.4886 122.349 86.5609 122.379 86.6363 122.379Z" fill="white"/>
<path d="M94.9756 121.994H86.6362V122.187H94.9756V121.994Z" fill="white"/>
<path d="M94.9757 121.898H86.6363L86.9206 122.187V121.994L86.6363 122.283H94.9757L94.6914 121.994V122.187C94.6914 122.263 94.7214 122.337 94.7747 122.391C94.828 122.445 94.9003 122.475 94.9757 122.475C95.0511 122.475 95.1234 122.445 95.1768 122.391C95.2301 122.337 95.26 122.263 95.26 122.187V121.994C95.259 121.918 95.2288 121.845 95.1757 121.791C95.1226 121.737 95.0508 121.707 94.9757 121.706H86.6363C86.5613 121.707 86.4895 121.737 86.4364 121.791C86.3833 121.845 86.353 121.918 86.3521 121.994V122.187C86.353 122.263 86.3833 122.336 86.4364 122.39C86.4895 122.444 86.5613 122.474 86.6363 122.475H94.9757C95.0511 122.475 95.1234 122.445 95.1768 122.391C95.2301 122.337 95.26 122.263 95.26 122.187C95.26 122.11 95.2301 122.037 95.1768 121.983C95.1234 121.928 95.0511 121.898 94.9757 121.898V121.898Z" fill="white"/>
<path d="M71.6632 126.805H91.564C91.6394 126.805 91.7117 126.774 91.765 126.72C91.8183 126.666 91.8483 126.593 91.8483 126.516C91.8483 126.439 91.8183 126.366 91.765 126.312C91.7117 126.258 91.6394 126.227 91.564 126.227H71.6632C71.5878 126.227 71.5155 126.258 71.4622 126.312C71.4089 126.366 71.3789 126.439 71.3789 126.516C71.3789 126.593 71.4089 126.666 71.4622 126.72C71.5155 126.774 71.5878 126.805 71.6632 126.805Z" fill="white"/>
<path d="M91.5638 126.42H71.6631V126.612H91.5638V126.42Z" fill="white"/>
<path d="M91.564 126.324H71.6632L71.9475 126.612V126.42L71.6632 126.708H91.564L91.2797 126.42V126.612C91.2797 126.689 91.3096 126.762 91.363 126.816C91.4163 126.871 91.4886 126.901 91.564 126.901C91.6394 126.901 91.7117 126.871 91.765 126.816C91.8183 126.762 91.8483 126.689 91.8483 126.612V126.42C91.8473 126.344 91.817 126.271 91.7639 126.217C91.7108 126.163 91.6391 126.132 91.564 126.131H71.6632C71.5881 126.132 71.5164 126.163 71.4633 126.217C71.4102 126.271 71.3799 126.344 71.3789 126.42V126.612C71.3799 126.689 71.4102 126.761 71.4633 126.815C71.5164 126.869 71.5881 126.9 71.6632 126.901H91.564C91.6394 126.901 91.7117 126.871 91.765 126.816C91.8183 126.762 91.8483 126.689 91.8483 126.612C91.8483 126.536 91.8183 126.462 91.765 126.408C91.7117 126.354 91.6394 126.324 91.564 126.324V126.324Z" fill="white"/>
<path d="M89.6686 119.878H109.38C109.455 119.878 109.528 119.847 109.581 119.793C109.634 119.739 109.664 119.665 109.664 119.589C109.664 119.512 109.634 119.439 109.581 119.385C109.528 119.331 109.455 119.3 109.38 119.3H89.6686C89.5932 119.3 89.5209 119.331 89.4675 119.385C89.4142 119.439 89.3843 119.512 89.3843 119.589C89.3843 119.665 89.4142 119.739 89.4675 119.793C89.5209 119.847 89.5932 119.878 89.6686 119.878Z" fill="white"/>
<path d="M109.38 119.493H89.6685V119.685H109.38V119.493Z" fill="white"/>
<path d="M109.38 119.397H89.6686L89.9529 119.685V119.493L89.6686 119.781H109.38L109.096 119.493V119.685C109.096 119.762 109.125 119.835 109.179 119.889C109.232 119.943 109.304 119.974 109.38 119.974C109.455 119.974 109.528 119.943 109.581 119.889C109.634 119.835 109.664 119.762 109.664 119.685V119.493C109.663 119.416 109.633 119.344 109.58 119.29C109.527 119.236 109.455 119.205 109.38 119.204H89.6686C89.5935 119.205 89.5217 119.236 89.4686 119.29C89.4155 119.344 89.3853 119.416 89.3843 119.493V119.685C89.3853 119.761 89.4155 119.834 89.4686 119.888C89.5217 119.942 89.5935 119.973 89.6686 119.974H109.38C109.455 119.974 109.528 119.943 109.581 119.889C109.634 119.835 109.664 119.762 109.664 119.685C109.664 119.609 109.634 119.535 109.581 119.481C109.528 119.427 109.455 119.397 109.38 119.397Z" fill="white"/>
<path d="M88.9108 117.761H115.256C115.331 117.761 115.403 117.731 115.457 117.676C115.51 117.622 115.54 117.549 115.54 117.472C115.54 117.396 115.51 117.322 115.457 117.268C115.403 117.214 115.331 117.184 115.256 117.184H88.9108C88.8354 117.184 88.763 117.214 88.7097 117.268C88.6564 117.322 88.6265 117.396 88.6265 117.472C88.6265 117.549 88.6564 117.622 88.7097 117.676C88.763 117.731 88.8354 117.761 88.9108 117.761Z" fill="white"/>
<path d="M115.255 117.376H88.9106V117.569H115.255V117.376Z" fill="white"/>
<path d="M115.256 117.28H88.9108L89.1951 117.569V117.376L88.9108 117.665H115.256L114.971 117.376V117.569C114.971 117.645 115.001 117.719 115.055 117.773C115.108 117.827 115.18 117.857 115.256 117.857C115.331 117.857 115.403 117.827 115.457 117.773C115.51 117.719 115.54 117.645 115.54 117.569V117.376C115.539 117.3 115.509 117.227 115.456 117.173C115.402 117.119 115.331 117.089 115.256 117.088H88.9108C88.8357 117.089 88.7639 117.119 88.7108 117.173C88.6577 117.227 88.6274 117.3 88.6265 117.376V117.569C88.6274 117.645 88.6577 117.718 88.7108 117.772C88.7639 117.825 88.8357 117.856 88.9108 117.857H115.256C115.331 117.857 115.403 117.827 115.457 117.773C115.51 117.719 115.54 117.645 115.54 117.569C115.54 117.492 115.51 117.419 115.457 117.364C115.403 117.31 115.331 117.28 115.256 117.28Z" fill="white"/>
<path d="M63.1343 89.5715L80.0026 85.5306L80.1921 110.545" fill="black"/>
<path d="M63.2103 89.8601L77.971 86.3235L80.0786 85.8193L79.7185 85.5307L79.8853 107.467L79.908 110.545C79.908 110.622 79.938 110.695 79.9913 110.749C80.0446 110.803 80.1169 110.834 80.1923 110.834C80.2677 110.834 80.34 110.803 80.3933 110.749C80.4466 110.695 80.4766 110.622 80.4766 110.545L80.3098 88.6094L80.2871 85.5307C80.2861 85.4865 80.2753 85.4432 80.2556 85.4038C80.2359 85.3644 80.2077 85.3301 80.1731 85.3033C80.1385 85.2765 80.0984 85.2579 80.0558 85.249C80.0132 85.2401 79.9692 85.241 79.927 85.2517L65.1662 88.7884L63.0587 89.2925C62.7023 89.3791 62.854 89.9352 63.2103 89.8505V89.8601Z" fill="white"/>
<path d="M80.0971 110.545L79.9076 85.6518L63.1568 89.6656L63.1113 89.4771L80.0971 85.4093L80.2866 110.545H80.0971Z" fill="white"/>
<path d="M80.3813 110.545L80.2164 88.7498L80.1918 85.6519C80.1911 85.6078 80.1806 85.5645 80.1611 85.5251C80.1415 85.4857 80.1135 85.4513 80.0791 85.4245C80.0446 85.3977 80.0046 85.3791 79.9621 85.3701C79.9196 85.3612 79.8757 85.3621 79.8335 85.3729L65.2017 88.8788L63.0809 89.3867L63.4296 89.5792L63.386 89.3867L63.187 89.7427L78.0122 86.2041L80.169 85.6884L79.8108 85.4094L79.9776 107.445L80.0003 110.545L80.2865 110.257H80.097C80.0216 110.257 79.9493 110.287 79.896 110.341C79.8426 110.395 79.8127 110.469 79.8127 110.545C79.8127 110.622 79.8426 110.695 79.896 110.749C79.9493 110.803 80.0216 110.834 80.097 110.834H80.2865C80.3616 110.833 80.4334 110.802 80.4865 110.748C80.5396 110.694 80.5698 110.621 80.5708 110.545L80.404 88.5132L80.3813 85.4152C80.3803 85.371 80.3696 85.3277 80.3498 85.2883C80.3301 85.249 80.3019 85.2146 80.2673 85.1878C80.2327 85.161 80.1926 85.1425 80.15 85.1335C80.1074 85.1246 80.0634 85.1255 80.0212 85.1362L65.1942 88.6883L63.0392 89.2001C62.9672 89.2212 62.9061 89.27 62.8689 89.3361C62.8318 89.4022 62.8215 89.4804 62.8402 89.5541L62.8838 89.7466C62.9069 89.8176 62.9559 89.8771 63.0206 89.9128C63.0854 89.9486 63.1612 89.9579 63.2325 89.939L77.8643 86.435L79.9852 85.927L79.6251 85.648L79.7919 107.445L79.8146 110.541C79.8199 110.614 79.8518 110.681 79.904 110.731C79.9562 110.78 80.0248 110.808 80.0962 110.808C80.1676 110.809 80.2366 110.782 80.2894 110.733C80.3422 110.685 80.375 110.617 80.3813 110.545V110.545Z" fill="white"/>
<path d="M78.0127 87.2624V108.236C78.0127 108.313 78.0426 108.386 78.096 108.44C78.1493 108.494 78.2216 108.525 78.297 108.525C78.3724 108.525 78.4447 108.494 78.498 108.44C78.5514 108.386 78.5813 108.313 78.5813 108.236V87.2624C78.5813 87.1858 78.5514 87.1124 78.498 87.0583C78.4447 87.0042 78.3724 86.9738 78.297 86.9738C78.2216 86.9738 78.1493 87.0042 78.096 87.0583C78.0426 87.1124 78.0127 87.1858 78.0127 87.2624Z" fill="white"/>
<path d="M78.3917 87.2625H78.2021V108.236H78.3917V87.2625Z" fill="white"/>
<path d="M78.3918 107.948H78.2023L78.4866 108.236V87.2624L78.2023 87.551H78.3918L78.1075 87.2624V108.236C78.1075 108.313 78.1375 108.386 78.1908 108.44C78.2441 108.494 78.3164 108.525 78.3918 108.525C78.4672 108.525 78.5395 108.494 78.5929 108.44C78.6462 108.386 78.6761 108.313 78.6761 108.236V87.2624C78.6752 87.1861 78.6449 87.1133 78.5918 87.0594C78.5387 87.0055 78.4669 86.9748 78.3918 86.9738H78.2023C78.1272 86.9748 78.0554 87.0055 78.0023 87.0594C77.9492 87.1133 77.919 87.1861 77.918 87.2624V108.236C77.919 108.312 77.9492 108.385 78.0023 108.439C78.0554 108.493 78.1272 108.524 78.2023 108.525H78.3918C78.4672 108.525 78.5395 108.494 78.5929 108.44C78.6462 108.386 78.6761 108.313 78.6761 108.236C78.6761 108.16 78.6462 108.086 78.5929 108.032C78.5395 107.978 78.4672 107.948 78.3918 107.948Z" fill="white"/>
<path d="M56.8799 65.519C59.2785 65.6627 61.6834 65.6627 64.0821 65.519C66.3054 65.3847 68.5198 65.1277 70.7157 64.7493" fill="white"/>
<path d="M56.8796 65.8076C61.5306 66.0762 66.1965 65.8181 70.7912 65.0379C71.1513 64.9764 70.9978 64.4203 70.6396 64.4799C66.0946 65.2478 61.4795 65.4995 56.8796 65.2304C56.5138 65.2092 56.5157 65.7865 56.8796 65.8076Z" fill="white"/>
<path d="M60.481 65.7229C59.2756 65.7229 58.0752 65.687 56.8799 65.6152L56.8913 65.4228C59.2861 65.5671 61.6872 65.5671 64.0821 65.4228C66.3022 65.2885 68.5136 65.0316 70.7062 64.6531L70.7365 64.8455C68.5377 65.225 66.32 65.482 64.0934 65.6152C62.8918 65.6864 61.6864 65.7229 60.481 65.7229Z" fill="white"/>
<path d="M60.4812 65.4344C59.2771 65.4344 58.0767 65.3984 56.8801 65.3266L57.1644 65.6152L57.1758 65.4228L56.8915 65.7114C61.5353 65.9749 66.1935 65.7135 70.7804 64.9321L70.4316 64.7397L70.4638 64.9321L70.6629 64.5781C67.2997 65.1469 63.8965 65.4371 60.4869 65.4459C60.4115 65.4459 60.3392 65.4763 60.2859 65.5304C60.2326 65.5846 60.2026 65.658 60.2026 65.7345C60.2026 65.8111 60.2326 65.8845 60.2859 65.9386C60.3392 65.9928 60.4115 66.0232 60.4869 66.0232C63.9466 66.0082 67.3992 65.707 70.8107 65.1226C70.8811 65.0991 70.94 65.0492 70.9752 64.9829C71.0105 64.9167 71.0194 64.8393 71.0002 64.7667L70.968 64.5742C70.9472 64.5011 70.8991 64.4391 70.834 64.4014C70.7689 64.3636 70.6919 64.3532 70.6193 64.3722C66.0812 65.1398 61.4734 65.394 56.8801 65.1303C56.8044 65.1313 56.7321 65.1626 56.6789 65.2173C56.6257 65.2721 56.5958 65.3459 56.5958 65.4228L56.5845 65.6152C56.5855 65.6915 56.6157 65.7643 56.6688 65.8182C56.7219 65.8721 56.7937 65.9029 56.8688 65.9039C58.0704 65.9731 59.2708 66.0091 60.4699 66.0116C60.5453 66.0132 60.6182 65.9842 60.6726 65.9312C60.7269 65.8781 60.7583 65.8053 60.7598 65.7288C60.7614 65.6522 60.7328 65.5782 60.6806 65.523C60.6283 65.4678 60.5566 65.4359 60.4812 65.4344V65.4344Z" fill="white"/>
<path d="M15.7968 24.014L28.3059 31.7108C28.6205 31.9032 28.9067 31.4049 28.5939 31.2105L16.0849 23.5137C15.7703 23.3213 15.4841 23.8197 15.7968 24.014V24.014Z" fill="#EEEEEE"/>
<path d="M1.61266 55.8018L23.2382 48.5303L26.2517 47.5278C26.5967 47.4104 26.4412 46.8524 26.1001 46.9697L4.47458 54.222L1.46104 55.2342C1.11609 55.3515 1.27151 55.9096 1.61266 55.7922V55.8018Z" fill="#EEEEEE"/>
<path d="M103.648 13.8158L125.879 3.37125L129.046 1.88577C129.377 1.72991 129.089 1.23154 128.758 1.38547L106.527 11.83L103.36 13.3155C103.029 13.4714 103.317 13.9697 103.648 13.8158Z" fill="#EEEEEE"/>
<path d="M89.4035 56.7638L105.004 62.9982L107.219 63.8833C107.561 64.018 107.708 63.46 107.371 63.3253L91.7708 57.0909L89.5552 56.2057C89.214 56.0711 89.0662 56.6291 89.4035 56.7638V56.7638Z" fill="#EEEEEE"/>
</svg>
