<svg width="16" height="21" viewBox="0 0 16 21" fill="none" xmlns="http://www.w3.org/2000/svg">
<path d="M12 18.3333V19H0V18.3333L1.33333 17V13C1.33333 10.9333 2.68667 9.11333 4.66667 8.52667C4.66667 8.46 4.66667 8.4 4.66667 8.33333C4.66667 7.97971 4.80714 7.64057 5.05719 7.39052C5.30724 7.14048 5.64638 7 6 7C6.35362 7 6.69276 7.14048 6.94281 7.39052C7.19286 7.64057 7.33333 7.97971 7.33333 8.33333C7.33333 8.4 7.33333 8.46 7.33333 8.52667C9.31333 9.11333 10.6667 10.9333 10.6667 13V17L12 18.3333ZM7.33333 19.6667C7.33333 20.0203 7.19286 20.3594 6.94281 20.6095C6.69276 20.8595 6.35362 21 6 21C5.64638 21 5.30724 20.8595 5.05719 20.6095C4.80714 20.3594 4.66667 20.0203 4.66667 19.6667" fill="black"/>
<circle cx="11" cy="5" r="4.5" fill="#E40177" stroke="white"/>
</svg>
