<svg width="16" height="16" viewBox="0 0 16 16" fill="none" xmlns="http://www.w3.org/2000/svg">
<path fill-rule="evenodd" clip-rule="evenodd" d="M0.666504 1.3335V2.66683H1.99984L4.39984 7.72683L3.49984 9.3535C3.01317 10.2468 3.65317 11.3335 4.6665 11.3335H12.6665V10.0002H4.6665L5.39984 8.66683H10.3665C10.8665 8.66683 11.3065 8.3935 11.5332 7.98016L13.9198 3.6535C14.1665 3.2135 13.8465 2.66683 13.3398 2.66683H3.47317L2.8465 1.3335H0.666504ZM4.6665 12.0002C3.93317 12.0002 3.33984 12.6002 3.33984 13.3335C3.33984 14.0668 3.93317 14.6668 4.6665 14.6668C5.39984 14.6668 5.99984 14.0668 5.99984 13.3335C5.99984 12.6002 5.39984 12.0002 4.6665 12.0002ZM10.0065 13.3335C10.0065 12.6002 10.5998 12.0002 11.3332 12.0002C12.0665 12.0002 12.6665 12.6002 12.6665 13.3335C12.6665 14.0668 12.0665 14.6668 11.3332 14.6668C10.5998 14.6668 10.0065 14.0668 10.0065 13.3335Z" fill="black"/>
</svg>
