<svg width="60" height="40" viewBox="0 0 60 40" fill="none" xmlns="http://www.w3.org/2000/svg">
<path d="M19.5668 0.185881L19.5814 3.28334C15.1601 5.6209 11.9984 8.0533 10.0963 10.5805C8.19428 13.1077 7.2502 15.8571 7.26413 18.8287C7.27239 20.5915 7.52988 21.799 8.0366 22.4514C8.4932 23.1544 9.04886 23.5044 9.70361 23.5013C10.3584 23.4982 11.2389 23.3178 12.3453 22.9601C13.4514 22.552 14.4578 22.3458 15.3644 22.3415C17.4293 22.3318 19.221 23.1041 20.7392 24.6584C22.3076 26.162 23.097 28.0219 23.1074 30.2379C23.1187 32.6554 22.1968 34.75 20.3415 36.5215C18.4861 38.2426 16.1733 39.1097 13.4032 39.1227C10.0287 39.1385 6.9748 37.6922 4.24139 34.7837C1.50798 31.8753 0.131245 28.2806 0.111181 23.9996C0.0875756 18.963 1.72767 14.2713 5.03147 9.92432C8.38539 5.52674 13.2305 2.28059 19.5668 0.185881ZM55.6041 0.243628L55.6176 3.11444C50.5444 6.05946 47.2074 8.69414 45.6066 11.0185C44.0058 13.3428 43.2127 16.0663 43.2273 19.189C43.2339 20.5992 43.5159 21.6556 44.0732 22.3581C44.6305 23.0606 45.2114 23.4104 45.8157 23.4076C46.3698 23.405 47.1998 23.1996 48.306 22.7915C49.4121 22.3834 50.5192 22.1768 51.6273 22.1716C53.6922 22.1619 55.4837 22.909 57.0018 24.4129C58.5699 25.8661 59.3591 27.6756 59.3692 29.8413C59.3808 32.3092 58.4087 34.4543 56.453 36.2767C54.5476 38.0988 52.1847 39.0165 49.3642 39.0297C46.0401 39.0453 43.0367 37.6239 40.3539 34.7656C37.6711 31.9073 36.3196 28.3376 36.2996 24.0566C36.2748 18.7683 37.9395 13.9505 41.2936 9.60326C44.6476 5.20569 49.4177 2.08581 55.6041 0.243628Z" fill="#FBB059"/>
</svg>
